<svg width="16" height="16" viewBox="0 0 16 16" fill="none" xmlns="http://www.w3.org/2000/svg">
<path d="M10.6667 0H5.33333C2.4 0 0 2.4 0 5.33333C0 7.6 1.46667 9.6 3.46667 10.2667V13.8667L8 16H16V5.2L10.6667 0ZM1.2 5.33333C1.2 3.06667 3.06667 1.2 5.33333 1.2C7.6 1.2 9.46667 3.06667 9.46667 5.33333C9.46667 5.6 9.46667 5.86667 9.33333 6.13333H7.6C7.33333 6.13333 7.2 6.13333 7.06667 6.26667V6.13333C7.06667 5.46667 6.66667 5.06667 5.73333 4.8V3.86667C5.86667 3.86667 6.13333 4 6.26667 4.13333C6.4 4.13333 6.4 4.13333 6.53333 4.13333C6.66667 4.13333 6.8 4 6.8 3.73333C6.8 3.6 6.77806 3.38903 6.66667 3.33333C6.4 3.2 6 3.06667 5.73333 3.06667V2.93333C5.73333 2.8 5.6 2.66667 5.33333 2.66667C5.2 2.66667 5.06667 2.8 5.06667 2.93333V3.06667C4.26667 3.2 3.73333 3.6 3.73333 4.26667C3.73333 4.93333 4.13333 5.33333 5.06667 5.6V6.53333C4.8 6.53333 4.53333 6.4 4.26667 6.13333C4.13333 6.13333 4.13333 6 4 6C3.73333 6 3.6 6.13333 3.6 6.4C3.6 6.53333 3.73333 6.66667 3.86667 6.8C4.26667 7.06667 4.66667 7.2 5.06667 7.2V7.46667C5.06667 7.86667 5.2 8 5.33333 8C5.33333 8.13333 5.33333 8.26667 5.33333 8.4C5.33333 8.8 5.46667 9.06667 5.6 9.46667C5.46667 9.46667 5.46667 9.46667 5.33333 9.46667C3.06667 9.46667 1.2 7.6 1.2 5.33333ZM5.73333 6.53333V5.73333C6 5.86667 6.13333 6 6.13333 6.13333C6.13333 6.4 6 6.53333 5.73333 6.53333ZM5.06667 3.86667V4.66667C4.8 4.53333 4.66667 4.4 4.66667 4.26667C4.66667 4 4.8 3.86667 5.06667 3.86667ZM14.8 14.8H8.26667L4.66667 13.0667V10.5333C4.8 10.6667 5.06667 10.6667 5.33333 10.6667C5.73333 10.6667 6.26667 10.5333 6.66667 10.5333C6.93333 10.5333 7.2 10.6667 7.6 10.6667H10.6667V9.46667H9.46667H7.6C7.06667 9.46667 6.53333 8.93333 6.53333 8.4C6.53333 7.86667 7.06667 7.33333 7.6 7.33333H9.46667H10.6667V6.13333H10.5333C10.6667 5.86667 10.6667 5.6 10.6667 5.33333C10.6667 3.6 9.86667 2.13333 8.53333 1.06667H10.1333L14.8 5.6V14.8Z" fill="#231F20"/>
</svg>
