<svg width="16" height="16" viewBox="0 0 16 16" fill="none" xmlns="http://www.w3.org/2000/svg">
<path d="M1.18962 6.60967H1.55103C1.55103 6.63197 1.5435 6.64684 1.5435 6.66914V13.6803H1.29503C1.04656 13.6803 0.843269 13.881 0.843269 14.1264C0.843269 14.3717 1.04656 14.5725 1.29503 14.5725H1.99527H3.71197H5.42868H7.14539H8.86209H10.5788H12.2955H14.0047H14.7049C14.9534 14.5725 15.1567 14.3717 15.1567 14.1264C15.1567 13.881 14.9534 13.6803 14.7049 13.6803H14.4564V6.66914C14.4564 6.64684 14.4564 6.63197 14.4489 6.60967H14.8103C15.1491 6.60967 15.4503 6.39405 15.5557 6.07435C15.6612 5.75465 15.5482 5.4052 15.2772 5.20446L8.26727 0.0892193C8.10915 -0.0297398 7.8908 -0.0297398 7.73268 0.0892193L0.722798 5.2119C0.45174 5.41264 0.338798 5.76208 0.44421 6.08178C0.549622 6.40149 0.850798 6.60967 1.18962 6.60967ZM8.41033 13.6803H7.59715V6.66914C7.59715 6.64684 7.59715 6.63197 7.58962 6.60967H8.41033C8.41033 6.63197 8.4028 6.64684 8.4028 6.66914L8.41033 13.6803ZM4.97692 13.6803H4.16374V6.66914C4.16374 6.64684 4.16374 6.63197 4.15621 6.60967H4.97692C4.97692 6.63197 4.96939 6.64684 4.96939 6.66914V13.6803H4.97692ZM2.45456 13.6803V7.11524H3.26774V13.6803H2.45456ZM5.88045 13.6803V7.11524H6.69362V13.6803H5.88045ZM9.31386 13.6803V7.11524H10.127V13.6803H9.31386ZM12.7397 13.6803V7.11524H13.5529V13.6803H12.7397ZM11.8362 6.66914V13.6803H11.023V6.66914C11.023 6.64684 11.023 6.63197 11.0155 6.60967H11.8362C11.8362 6.63197 11.8362 6.65427 11.8362 6.66914ZM8.00374 1.00372L14.464 5.72491H1.5435C1.5435 5.71747 8.00374 1.00372 8.00374 1.00372Z" fill="#231F20"/>
<path d="M15.5482 15.1079H0.451765C0.203294 15.1079 0 15.3087 0 15.554C0 15.7993 0.203294 16.0001 0.451765 16.0001H15.5482C15.7967 16.0001 16 15.7993 16 15.554C16 15.3087 15.8042 15.1079 15.5482 15.1079Z" fill="#231F20"/>
</svg>
