<svg width="16" height="16" viewBox="0 0 16 16" fill="none" xmlns="http://www.w3.org/2000/svg">
<g clip-path="url(#clip0)">
<path d="M7.55273 6.4001C7.55273 6.5001 7.65211 6.6001 7.85087 6.7001V6.1001C7.65211 6.2001 7.55273 6.3001 7.55273 6.4001Z" fill="#231F20"/>
<path d="M4.37272 10.2998C4.37272 10.6998 4.17396 11.6998 4.07458 12.5998H4.77024C4.57148 11.4998 4.4721 10.6998 4.37272 10.2998Z" fill="#231F20"/>
<path d="M8.24841 7.2998V7.7998C8.44717 7.7998 8.54655 7.6998 8.54655 7.5998C8.44717 7.4998 8.44717 7.3998 8.24841 7.2998Z" fill="#231F20"/>
<path d="M11.7268 10.2998C11.3293 10.2998 11.1305 10.4998 11.1305 11.0998V13.4998C11.1305 14.0998 11.3293 14.2998 11.7268 14.2998C12.1243 14.2998 12.323 14.0998 12.323 13.4998V10.9998C12.323 10.4998 12.1243 10.2998 11.7268 10.2998Z" fill="#231F20"/>
<path d="M9.83851 4.2C10.6335 3.6 11.2298 2.7 11.2298 1.6C11.2298 0.1 10.236 0 8.84472 0C8.54658 0 8.24845 0 7.95031 0C7.65217 0 7.45342 0 7.15528 0C5.76398 0 4.77019 0.1 4.77019 1.6C4.77019 2.7 5.26708 3.6 6.16149 4.2C2.58385 5 0 8.2 0 12C0 16.4 3.57764 16 7.95031 16C12.323 16 15.9006 16.4 15.9006 12C16 8.2 13.3168 5 9.83851 4.2ZM5.06832 14.6L4.86957 13H3.97516L3.67702 14.6H3.2795L4.07453 9.9H4.77019L5.6646 14.6H5.06832ZM7.15528 1H7.55279H7.95031H8.34783H8.74534C10.1366 1 10.1366 1.1 10.1366 1.6C10.1366 2.8 9.14286 3.8 7.95031 3.8C6.75776 3.8 5.76398 2.8 5.76398 1.6C5.76398 1.1 5.76398 1 7.15528 1ZM8.04969 13.6C8.04969 14.3 7.75155 14.7 7.0559 14.7C6.36025 14.7 6.06211 14.3 6.06211 13.6V9.9H6.55901V13.6C6.55901 14 6.75776 14.3 7.0559 14.3C7.45342 14.3 7.55279 14 7.55279 13.6V9.9H8.04969V13.6ZM8.24845 8.5C8.24845 8.6 8.14907 8.7 8.04969 8.7C7.95031 8.7 7.85093 8.7 7.85093 8.5V8.3C7.5528 8.3 7.35404 8.2 7.0559 8C7.0559 8 6.95652 7.9 6.95652 7.8C6.95652 7.7 7.0559 7.5 7.25466 7.5C7.35404 7.5 7.35404 7.5 7.35404 7.5C7.5528 7.6 7.65217 7.7 7.85093 7.7V7.2C7.35404 7.1 7.0559 6.9 7.0559 6.4C7.0559 6 7.35404 5.7 7.85093 5.6C7.85093 5.5 7.95031 5.4 8.04969 5.4C8.14907 5.4 8.24845 5.5 8.24845 5.6V5.7C8.44721 5.7 8.64596 5.8 8.84472 5.9C8.84472 5.9 8.9441 6 8.9441 6.1C8.9441 6.2 8.84472 6.4 8.64596 6.4H8.54658C8.44721 6.2 8.34783 6.2 8.24845 6.2V6.8C8.84472 7 9.04348 7.2 9.04348 7.6C9.04348 8 8.74534 8.3 8.24845 8.4V8.5ZM10.4348 10.3H9.63975V14.6H9.14286V10.3H8.34783V9.9H10.4348V10.3ZM12.8199 13.4C12.8199 14.2 12.4224 14.6 11.7267 14.6C10.9317 14.6 10.7329 14.1 10.7329 13.4V11C10.7329 10.2 11.1304 9.8 11.8261 9.8C12.5217 9.8 12.8199 10.3 12.8199 11V13.4Z" fill="#231F20"/>
</g>
<defs>
<clipPath id="clip0">
<rect width="16" height="16" fill="white"/>
</clipPath>
</defs>
</svg>
