<svg width="75" height="55" viewBox="0 0 75 55" fill="none" xmlns="http://www.w3.org/2000/svg">
<path d="M70.5095 47.8368C70.5095 51.4495 67.582 54.377 63.9693 54.377H55.0622C51.4495 54.377 48.522 51.4495 48.522 47.8368C48.522 44.2241 51.4495 41.2966 55.0622 41.2966H63.9693C67.6442 41.3589 70.5095 44.2864 70.5095 47.8368Z" fill="#CEF6FD"/>
<path d="M36.0022 32.2649C36.0022 35.8776 33.0747 38.8051 29.462 38.8051H6.4779C2.92751 38.7428 0 35.8153 0 32.2649C0 28.7145 2.92751 25.7247 6.4779 25.7247H29.3997C33.0747 25.7247 36.0022 28.6522 36.0022 32.2649Z" fill="#CEF6FD"/>
<path d="M64.9036 29.711C63.6578 29.711 62.6612 28.7144 62.6612 27.4687C62.6612 26.2229 63.6578 25.2263 64.9036 25.2263C66.1493 25.2263 67.1459 26.2229 67.1459 27.4687C67.1459 28.7144 66.1493 29.711 64.9036 29.711Z" fill="#CEF6FD"/>
<path d="M74.4336 6.54019C74.4336 10.1529 71.5061 13.0804 67.8934 13.0804H49.6432C46.0305 13.0804 43.103 10.1529 43.103 6.54019C43.103 2.92751 46.0305 0 49.6432 0H67.8934C71.5061 0 74.4336 2.92751 74.4336 6.54019Z" fill="#CEF6FD"/>
<path d="M13.9524 49.0204C13.1427 49.0204 12.5198 49.6433 12.5198 50.453C12.5198 51.2627 13.1427 51.8856 13.9524 51.8856C14.7621 51.8856 15.385 51.2627 15.385 50.453C15.385 49.6433 14.7621 49.0204 13.9524 49.0204Z" fill="#FFBF5A"/>
<path d="M7.10073 4.1731C6.291 4.1731 5.66812 4.79597 5.66812 5.60571C5.66812 6.41545 6.291 7.03832 7.10073 7.03832C7.91047 7.03832 8.53335 6.41545 8.53335 5.60571C8.53335 4.85826 7.91047 4.1731 7.10073 4.1731Z" fill="#D1F6E5"/>
<path d="M57.9274 35.3171C57.5537 36.6874 56.9931 38.0578 56.3079 39.3035L59.2355 44.4111L54.0033 49.6432L48.8334 46.7157C47.5877 47.4009 46.2796 47.9615 44.847 48.3352L43.2898 54.0034H35.8776L34.3204 48.3352C32.9501 47.9615 31.5798 47.4009 30.334 46.7157L25.2265 49.6432L19.9943 44.4111L22.9218 39.3035C22.2367 38.0578 21.6761 36.7497 21.3024 35.3171L15.5719 33.7599V26.3477L21.2401 24.7905C21.6138 23.4202 22.1744 22.0499 22.8595 20.8041L19.932 15.6965L25.1642 10.4644L30.2718 13.3919C31.5175 12.7067 32.8255 12.1461 34.2582 11.7724L35.8153 6.10425H43.2276L44.7847 11.7724C46.1551 12.1461 47.5254 12.7067 48.7712 13.3919L53.8787 10.4644L59.1109 15.6965L56.1834 20.8041C56.8685 22.0499 57.4291 23.3579 57.8028 24.7905L63.471 26.3477V33.7599L57.9274 35.3171Z" fill="#00C7BD"/>
<path d="M43.975 55H35.1301L33.5107 49.145C32.3895 48.7712 31.3306 48.3352 30.334 47.8369L25.0396 50.8267L18.8108 44.598L21.8006 39.2412C21.24 38.1823 20.804 37.1235 20.4926 36.0646L14.6375 34.4451V25.6003L20.4926 23.9808C20.8663 22.8596 21.3023 21.8007 21.8006 20.8041L18.8108 15.5097L25.0396 9.28093L30.334 12.2707C31.3929 11.7101 32.4518 11.2741 33.5107 10.9627L35.1301 5.10767H43.975L45.5944 10.9627C46.6533 11.2741 47.7745 11.7724 48.7711 12.2707L54.0656 9.28093L60.2943 15.5097L57.3045 20.8041C57.8651 21.863 58.3011 22.9219 58.6125 23.9808L64.4676 25.6003V34.4451L58.6125 36.0646C58.3011 37.1857 57.8028 38.2446 57.3045 39.2412L60.2943 44.5357L54.0656 50.7644L48.7711 47.7746C47.7122 48.3352 46.6533 48.7712 45.5944 49.0827L43.975 55ZM36.5628 53.1314H42.5424L44.0373 47.6501L44.5356 47.5255C45.8436 47.1518 47.0893 46.6535 48.3351 45.9683L48.7711 45.7191L53.7541 48.5221L57.9897 44.2865L55.1867 39.3035L55.4359 38.8675C56.121 37.684 56.6193 36.376 56.9931 35.068L57.1176 34.5697L62.5989 33.0748V27.0952L57.1799 25.538L57.0554 25.0397C56.6816 23.7316 56.1833 22.4859 55.4982 21.2401L55.249 20.8041L58.052 15.8211L53.8164 11.5856L48.8334 14.3885L48.3974 14.1394C47.1516 13.4542 45.9059 12.9559 44.5978 12.5822L44.0995 12.4576L42.6046 6.97629H36.625L35.0679 12.4576L34.5696 12.5822C33.2615 12.9559 32.0158 13.4542 30.77 14.1394L30.334 14.3885L25.351 11.5856L21.1154 15.8211L23.9184 20.8041L23.6692 21.2401C22.9841 22.4236 22.4858 23.7316 22.112 25.0397L21.9875 25.538L16.5062 27.0329V33.0125L21.9875 34.5074L22.112 35.0057C22.4858 36.3137 22.9841 37.5595 23.6692 38.8052L23.9184 39.2412L21.1154 44.2242L25.351 48.4598L30.334 45.6569L30.77 45.906C31.9535 46.5912 33.2615 47.0895 34.5696 47.4632L35.0679 47.5878L36.5628 53.1314Z" fill="black"/>
<path d="M39.5526 43.1029C46.7767 43.1029 52.633 37.2466 52.633 30.0225C52.633 22.7984 46.7767 16.9421 39.5526 16.9421C32.3285 16.9421 26.4723 22.7984 26.4723 30.0225C26.4723 37.2466 32.3285 43.1029 39.5526 43.1029Z" fill="white"/>
<path d="M39.5526 44.0371C31.8289 44.0371 25.5379 37.746 25.5379 30.0224C25.5379 22.2987 31.8289 16.0077 39.5526 16.0077C47.2762 16.0077 53.5673 22.2987 53.5673 30.0224C53.5673 37.746 47.2762 44.0371 39.5526 44.0371ZM39.5526 17.8763C32.8878 17.8763 27.4065 23.3576 27.4065 30.0224C27.4065 36.6872 32.8255 42.1685 39.5526 42.1685C46.2796 42.1685 51.6987 36.7494 51.6987 30.0224C51.6987 23.2953 46.2796 17.8763 39.5526 17.8763Z" fill="black"/>
<path d="M38.7428 34.3828C38.6182 34.3828 38.4314 34.3205 38.3068 34.2582L33.8844 31.2684C33.5107 31.0192 33.3861 30.5209 33.6352 30.1472C33.8844 29.7735 34.3827 29.6489 34.7564 29.8981L38.556 32.4519L44.1618 25.974C44.4733 25.6625 44.9716 25.6002 45.283 25.9117C45.5944 26.2231 45.6567 26.7214 45.3453 27.0328L39.3034 34.0713C39.1788 34.2582 38.992 34.3828 38.7428 34.3828Z" fill="black"/>
</svg>
