<svg width="16" height="16" viewBox="0 0 16 16" fill="none" xmlns="http://www.w3.org/2000/svg">
<circle cx="8" cy="8" r="7.5" stroke="#231F20"/>
<path d="M7.83 8.86C7.83 8.46667 7.9 8.13333 8.04 7.86C8.18 7.58667 8.38333 7.28667 8.65 6.96C8.86333 6.69333 9.02 6.47 9.12 6.29C9.22 6.11 9.27 5.90667 9.27 5.68C9.27 5.42 9.18 5.21667 9 5.07C8.82 4.92333 8.57 4.85 8.25 4.85C7.95 4.85 7.63667 4.91667 7.31 5.05C6.99 5.17667 6.67667 5.36333 6.37 5.61L6 4.85C6.28 4.59 6.63 4.38333 7.05 4.23C7.47 4.07667 7.89 4 8.31 4C8.90333 4 9.38333 4.14667 9.75 4.44C10.1167 4.73333 10.3 5.12 10.3 5.6C10.3 5.84 10.2567 6.06333 10.17 6.27C10.09 6.47667 9.98667 6.66 9.86 6.82C9.74 6.97333 9.57667 7.16667 9.37 7.4C9.08333 7.71333 8.86667 7.98 8.72 8.2C8.58 8.42 8.49333 8.67333 8.46 8.96L8.42 9.18H7.83V8.86ZM7.54 9.94H8.73V11.13H7.54V9.94Z" fill="#231F20"/>
</svg>
