<svg width="120" height="100" viewBox="0 0 120 100" fill="none" xmlns="http://www.w3.org/2000/svg">
<g clip-path="url(#clip0)">
<path d="M107.9 35H61.7C55.5 35 50.5 30 50.5 23.8C50.5 17.6 55.5 12.6 61.7 12.6H107.9C114.1 12.6 119.1 17.6 119.1 23.8C119.1 30 114 35 107.9 35Z" fill="#EBEBEB"/>
<path d="M119.5 88.7C119.5 94.9 114.5 99.9 108.3 99.9H100.1C94 99.9 88.9 95 88.9 88.7C88.9 82.5 93.9 77.5 100.1 77.5H108.3C114.5 77.5 119.5 82.5 119.5 88.7Z" fill="#EBEBEB"/>
<path d="M42.3 50.3C42.3 56.5 37.3 61.5 31.1 61.5H11.2C5 61.5 0 56.5 0 50.3C0 44.1 5 39.1 11.2 39.1H31.1C37.3 39.1 42.3 44.1 42.3 50.3Z" fill="#EBEBEB"/>
<path d="M110.9 48.3C108.7 48.3 106.9 50.1 106.9 52.3C106.9 54.5 108.7 56.3 110.9 56.3C113.1 56.3 114.9 54.5 114.9 52.3C114.9 50.1 113.1 48.3 110.9 48.3Z" fill="#E6E6E6"/>
<path d="M20 89.7C21.9 92.8 18.6 96.1 15.5 94.2C15.2 94 15 93.8 14.8 93.5C12.9 90.4 16.2 87.1 19.3 89C19.6 89.2 19.8 89.5 20 89.7Z" fill="#F3F3F3"/>
<path d="M16.3 0C14.7 0 13.4 1.3 13.4 2.9C13.4 4.5 14.7 5.8 16.3 5.8C17.9 5.8 19.2 4.5 19.2 2.9C19.2 1.3 17.9 0 16.3 0Z" fill="#AEAEAE"/>
<path d="M91.7999 82.6H38.0999C35.4999 82.6 33.2999 80.5 33.2999 77.8V12.9C33.2999 10.3 35.3999 8.09998 38.0999 8.09998H91.7999C94.3999 8.09998 96.5999 10.2 96.5999 12.9V77.8C96.5999 80.5 94.3999 82.6 91.7999 82.6Z" fill="#AEAEAE"/>
<path d="M81.4 91.8H27.7C25.1 91.8 22.9 89.7 22.9 87V22.1C22.9 19.5 25 17.3 27.7 17.3H81.4C84 17.3 86.2 19.4 86.2 22.1V87C86.2 89.6 84 91.8 81.4 91.8Z" fill="#AEAEAE"/>
<path d="M29.9 82V27.1C29.9 25.6 31.1 24.3 32.7 24.3H76.4C77.9 24.3 79.2 25.5 79.2 27.1V82C79.2 83.5 78 84.8 76.4 84.8H32.7C31.2 84.8 29.9 83.5 29.9 82Z" fill="white"/>
<path d="M90.2 6.79999H39.7C35.5 6.79999 32 10.3 32 14.5V16H29.3C25.1 16 21.6 19.5 21.6 23.7V85.4C21.6 89.6 25.1 93.1 29.3 93.1H79.8C84 93.1 87.5 89.6 87.5 85.4V84H90.2C94.4 84 97.9 80.5 97.9 76.3V14.5C97.9 10.3 94.5 6.79999 90.2 6.79999ZM84.9 85.4C84.9 88.2 82.6 90.4 79.9 90.4H29.3C26.5 90.4 24.3 88.1 24.3 85.4V23.7C24.3 20.9 26.6 18.7 29.3 18.7H79.8C82.6 18.7 84.8 21 84.8 23.7V85.4H84.9ZM95.3 76.3C95.3 79.1 93 81.3 90.3 81.3H87.6V23.7C87.6 19.5 84.1 16 79.9 16H34.6V14.5C34.6 11.7 36.9 9.49999 39.6 9.49999H90.1C92.9 9.49999 95.1 11.8 95.1 14.5V76.3H95.3Z" fill="#333333"/>
<path d="M75.5 23.3H33.6C31 23.3 28.9 25.4 28.9 28V81.1C28.9 83.7 31 85.8 33.6 85.8H75.5C78.1 85.8 80.2 83.7 80.2 81.1V28C80.2 25.4 78.1 23.3 75.5 23.3ZM78.2 81.1C78.2 82.6 77 83.8 75.5 83.8H33.6C32.1 83.8 30.9 82.6 30.9 81.1V28C30.9 26.5 32.1 25.3 33.6 25.3H75.5C77 25.3 78.2 26.5 78.2 28V81.1Z" fill="#333333"/>
<path d="M39.6 33L69.1 73" stroke="#333333" stroke-width="3" stroke-miterlimit="10" stroke-linecap="round"/>
<path d="M69.1 33L39.6 73" stroke="#333333" stroke-width="3" stroke-miterlimit="10" stroke-linecap="round"/>
<path d="M101.1 76.5C100.8 77.6 100.3 78.7 99.8 79.7L102.1 83.8L97.9 88L93.8 85.7C92.8 86.3 91.7 86.7 90.6 87L89.3 91.6H83.3L82 87C80.9 86.7 79.8 86.2 78.8 85.7L74.7 88L70.5 83.8L72.8 79.7C72.2 78.7 71.8 77.6 71.5 76.5L67 75.3V69.3L71.6 68C71.9 66.9 72.4 65.8 72.9 64.8L70.6 60.7L74.8 56.5L78.9 58.8C79.9 58.2 81 57.8 82.1 57.5L83.4 52.9H89.4L90.7 57.5C91.8 57.8 92.9 58.3 93.9 58.8L98 56.5L102.2 60.7L99.9 64.8C100.5 65.8 100.9 66.9 101.2 68L105.8 69.3V75.3L101.1 76.5Z" fill="#999999" stroke="#333333" stroke-width="2"/>
<path d="M86.3 82C91.6571 82 96 77.6571 96 72.3C96 66.9428 91.6571 62.6 86.3 62.6C80.9428 62.6 76.6 66.9428 76.6 72.3C76.6 77.6571 80.9428 82 86.3 82Z" fill="white" stroke="#333333" stroke-width="2"/>
</g>
<defs>
<clipPath id="clip0">
<rect width="119.5" height="99.9" fill="white"/>
</clipPath>
</defs>
</svg>
