<svg width="17" height="16" viewBox="0 0 17 16" fill="none" xmlns="http://www.w3.org/2000/svg">
<path d="M15.6 3.6999L8.3 0.0999023C8.1 -9.76548e-05 7.9 -9.76548e-05 7.7 0.0999023L0.4 3.6999C0.1 3.7999 0 4.0999 0 4.2999V15.2999C0 15.6999 0.3 15.9999 0.7 15.9999H6.2H9.9H15.4C15.8 15.9999 16.1 15.6999 16.1 15.2999V4.2999C16 4.0999 15.9 3.7999 15.6 3.6999ZM6.9 14.5999V10.4999H9.2V14.5999H6.9ZM14.6 14.5999H10.5V9.7999C10.5 9.3999 10.2 9.0999 9.8 9.0999H6.2C5.8 9.0999 5.5 9.3999 5.5 9.7999V14.5999H1.4V4.7999L8 1.4999L14.6 4.7999V14.5999Z" fill="#231F20"/>
</svg>
