<svg width="12" height="16" viewBox="0 0 12 16" fill="none" xmlns="http://www.w3.org/2000/svg">
<path d="M3.2 13C4.2 13 5 13.8 5 14.8V15H4.8C3.8 15 3 14.2 3 13.2V13H3.2ZM3.2 12H2V13.2C2 14.7 3.3 16 4.8 16H6V14.8C6 13.3 4.7 12 3.2 12Z" fill="#231F20"/>
<path d="M9 13V13.2C9 14.2 8.2 15 7.2 15H7V14.8C7 13.8 7.8 13 8.8 13H9ZM10 12H8.8C7.3 12 6 13.3 6 14.8V16H7.2C8.8 16 10 14.7 10 13.2V12Z" fill="#231F20"/>
<path d="M6 12V16" stroke="#231F20" stroke-miterlimit="10"/>
<path d="M6 1C8.8 1 11 3.2 11 6C11 8.8 8.8 11 6 11C3.2 11 1 8.8 1 6C1 3.2 3.2 1 6 1ZM6 0C2.7 0 0 2.7 0 6C0 9.3 2.7 12 6 12C9.3 12 12 9.3 12 6C12 2.7 9.3 0 6 0Z" fill="#231F20"/>
<path d="M5.90005 5.60001C5.50005 5.60001 5.10005 5.20001 5.10005 4.80001C5.20005 4.40001 5.50005 4.00001 5.90005 4.00001C6.30005 4.00001 6.70005 4.40001 6.70005 4.80001C6.70005 5.00001 6.90005 5.20001 7.10005 5.20001C7.30005 5.20001 7.50005 5.00001 7.50005 4.80001C7.50005 4.10001 7.00005 3.50001 6.30005 3.30001V3.10001C6.30005 2.90001 6.10005 2.70001 5.90005 2.70001C5.70005 2.70001 5.60005 2.90001 5.60005 3.10001V3.40001C4.90005 3.50001 4.40005 4.10001 4.40005 4.80001C4.40005 5.60001 5.10005 6.30001 5.90005 6.30001C6.30005 6.30001 6.70005 6.70001 6.70005 7.10001C6.70005 7.50001 6.30005 7.90001 5.90005 7.90001C5.50005 7.90001 5.10005 7.50001 5.10005 7.10001C5.10005 6.90001 4.90005 6.70001 4.70005 6.70001C4.50005 6.70001 4.30005 6.90001 4.30005 7.10001C4.30005 7.80001 4.80005 8.40001 5.50005 8.60001V8.80001C5.60005 9.00001 5.80005 9.20001 6.00005 9.20001C6.20005 9.20001 6.40005 9.00001 6.40005 8.80001V8.60001C7.00005 8.40001 7.50005 7.80001 7.50005 7.10001C7.50005 6.30001 6.80005 5.60001 5.90005 5.60001Z" fill="#231F20"/>
</svg>
