<svg width="16" height="16" viewBox="0 0 16 16" fill="none" xmlns="http://www.w3.org/2000/svg">
<path d="M13.5155 4.64505C14.3106 4.64505 14.9068 5.26441 14.9068 6.09021V13.6257C14.9068 14.4515 14.3106 15.0709 13.5155 15.0709H2.38509C1.59006 14.9676 0.993789 14.3483 0.993789 13.5225V6.09021C0.993789 5.26441 1.59006 4.64505 2.38509 4.64505H13.5155ZM13.5155 3.61279H2.38509C1.09317 3.61279 0 4.64505 0 6.09021V13.6257C0 14.8644 1.09317 15.9999 2.38509 15.9999H13.6149C14.9068 15.9999 16 14.8644 16 13.5225V6.09021C15.9006 4.64505 14.8075 3.61279 13.5155 3.61279Z" fill="#333333"/>
<path d="M1.98755 4.12903L11.2587 0.919036C12.5578 0.469208 13.913 1.4341 13.913 2.80896V4.12903H1.98755Z" stroke="#333333" stroke-miterlimit="10" stroke-linejoin="round"/>
<path d="M14.9068 8.7742V10.8387H12.9192C12.3229 10.8387 11.9254 10.4258 11.9254 9.80646C11.9254 9.1871 12.3229 8.7742 12.9192 8.7742H14.9068ZM15.9006 7.74194H12.9192C11.8261 7.74194 10.9316 8.67098 10.9316 9.80646C10.9316 10.9419 11.8261 11.871 12.9192 11.871H15.9006V7.74194Z" fill="#333333"/>
</svg>
