<svg width="16" height="16" viewBox="0 0 16 16" fill="none" xmlns="http://www.w3.org/2000/svg">
<path d="M14 2H11.9V2.9H14C14.6 2.9 15.1 3.4 15.1 4V14C15.1 14.6 14.6 15.1 14 15.1H2C1.4 15.1 0.9 14.6 0.9 14V4C0.9 3.4 1.4 2.9 2 2.9H4V2H2C0.9 2 0 2.9 0 4V14C0 15.1 0.9 16 2 16H14C15.1 16 16 15.1 16 14V4C16 2.9 15.1 2 14 2Z" fill="#231F20"/>
<path d="M11.1 0.9V3.1H4.9V0.9H11.1ZM11.1 0H4.9C4.4 0 4 0.4 4 0.9V3.2C4 3.6 4.4 4 4.9 4H11.2C11.6 4 12 3.6 12 3.1V0.9C12 0.4 11.6 0 11.1 0Z" fill="#231F20"/>
<path d="M6.00005 8.2999C6.40005 7.9999 6.70005 7.4999 6.70005 6.8999C6.70005 5.7999 5.80005 4.8999 4.70005 4.8999C3.60005 4.8999 2.70005 5.7999 2.70005 6.8999C2.70005 7.4999 2.90005 7.9999 3.30005 8.3999C2.50005 8.7999 2.00005 9.4999 1.80005 10.3999H2.70005C2.90005 9.4999 3.70005 8.8999 4.70005 8.8999C5.70005 8.8999 6.40005 9.4999 6.70005 10.3999H7.60005C7.40005 9.4999 6.80005 8.7999 6.00005 8.2999ZM3.60005 6.8999C3.60005 6.2999 4.10005 5.7999 4.70005 5.7999C5.30005 5.7999 5.80005 6.2999 5.80005 6.8999C5.80005 7.4999 5.30005 7.9999 4.70005 7.9999C4.10005 7.9999 3.60005 7.4999 3.60005 6.8999Z" fill="#231F20"/>
<path d="M14.1 5.2998H8.40002V6.1998H14.1V5.2998Z" fill="#231F20"/>
<path d="M14.1 7.2998H8.40002V8.1998H14.1V7.2998Z" fill="#231F20"/>
<path d="M14.1 9.2002H8.40002V10.1002H14.1V9.2002Z" fill="#231F20"/>
<path d="M14.2 11.2002H1.90002V12.1002H14.2V11.2002Z" fill="#231F20"/>
<path d="M14.2 13.1001H1.90002V14.0001H14.2V13.1001Z" fill="#231F20"/>
</svg>
