<svg width="17" height="17" viewBox="0 0 17 17" fill="none" xmlns="http://www.w3.org/2000/svg">
<path d="M14.5 8.5C14.5 12.366 11.366 15.5 7.5 15.5C3.63401 15.5 0.5 12.366 0.5 8.5C0.5 4.63401 3.63401 1.5 7.5 1.5C11.366 1.5 14.5 4.63401 14.5 8.5Z" stroke="#231F20"/>
<path d="M11.5 8.5C11.5 10.7091 9.70914 12.5 7.5 12.5C5.29086 12.5 3.5 10.7091 3.5 8.5C3.5 6.29086 5.29086 4.5 7.5 4.5C9.70914 4.5 11.5 6.29086 11.5 8.5Z" stroke="#231F20"/>
<path fill-rule="evenodd" clip-rule="evenodd" d="M12 1C12.2495 1 12.4991 0.875459 12.6865 0.688534L12.6885 0.686465C12.8755 0.49908 13 0.24954 13 0C13 0.24954 13.1245 0.49908 13.3115 0.686465L13.3135 0.688534C13.5009 0.875459 13.7505 1 14 1C13.7505 1 13.5009 1.12454 13.3135 1.31147L13.3115 1.31354C13.1245 1.50092 13 1.75046 13 2C13 1.75046 12.8755 1.50092 12.6885 1.31354L12.6865 1.31147C12.4991 1.12454 12.2495 1 12 1Z" fill="#231F20"/>
<path fill-rule="evenodd" clip-rule="evenodd" d="M3 13C3.24954 13 3.49908 12.8755 3.68646 12.6885L3.68853 12.6865C3.87546 12.4991 4 12.2495 4 12C4 12.2495 4.12454 12.4991 4.31147 12.6865L4.31354 12.6885C4.50092 12.8755 4.75046 13 5 13C4.75046 13 4.50092 13.1245 4.31354 13.3115L4.31147 13.3135C4.12454 13.5009 4 13.7505 4 14C4 13.7505 3.87546 13.5009 3.68853 13.3135L3.68646 13.3115C3.49908 13.1245 3.24954 13 3 13Z" fill="#231F20"/>
<path fill-rule="evenodd" clip-rule="evenodd" d="M14 14C14.2495 14 14.4991 13.8755 14.6865 13.6885L14.6885 13.6865C14.8755 13.4991 15 13.2495 15 13C15 13.2495 15.1245 13.4991 15.3115 13.6865L15.3135 13.6885C15.5009 13.8755 15.7505 14 16 14C15.7505 14 15.5009 14.1245 15.3135 14.3115L15.3115 14.3135C15.1245 14.5009 15 14.7505 15 15C15 14.7505 14.8755 14.5009 14.6885 14.3135L14.6865 14.3115C14.4991 14.1245 14.2495 14 14 14Z" fill="#231F20"/>
<path fill-rule="evenodd" clip-rule="evenodd" d="M12 16C12.2495 16 12.4991 15.8755 12.6865 15.6885L12.6885 15.6865C12.8755 15.4991 13 15.2495 13 15C13 15.2495 13.1245 15.4991 13.3115 15.6865L13.3135 15.6885C13.5009 15.8755 13.7505 16 14 16C13.7505 16 13.5009 16.1245 13.3135 16.3115L13.3115 16.3135C13.1245 16.5009 13 16.7505 13 17C13 16.7505 12.8755 16.5009 12.6885 16.3135L12.6865 16.3115C12.4991 16.1245 12.2495 16 12 16Z" fill="#231F20"/>
<path fill-rule="evenodd" clip-rule="evenodd" d="M13 3C13.4991 3 13.9982 2.75092 14.3729 2.37707L14.3771 2.37293C14.7509 1.99816 15 1.49908 15 1C15 1.49908 15.2491 1.99816 15.6229 2.37293L15.6271 2.37707C16.0018 2.75092 16.5009 3 17 3C16.5009 3 16.0018 3.24908 15.6271 3.62293L15.6229 3.62707C15.2491 4.00184 15 4.50092 15 5C15 4.50092 14.7509 4.00184 14.3771 3.62707L14.3729 3.62293C13.9982 3.24908 13.4991 3 13 3Z" fill="#231F20"/>
</svg>
