<svg width="17" height="17" viewBox="0 0 17 17" fill="none" xmlns="http://www.w3.org/2000/svg">
<path fill-rule="evenodd" clip-rule="evenodd" d="M11.2322 13.3869C12.4222 13.3869 13.3869 12.4222 13.3869 11.2322C13.3869 10.0421 12.4222 9.07739 11.2322 9.07739C10.0421 9.07739 9.07739 10.0421 9.07739 11.2322C9.07739 12.4222 10.0421 13.3869 11.2322 13.3869ZM11.2322 14.4643C13.0172 14.4643 14.4643 13.0172 14.4643 11.2322C14.4643 9.44709 13.0172 8 11.2322 8C9.44709 8 8 9.44709 8 11.2322C8 13.0172 9.44709 14.4643 11.2322 14.4643Z" fill="#231F20"/>
<path fill-rule="evenodd" clip-rule="evenodd" d="M16.2383 17L13.0061 13.7678L13.7679 13.006L17.0001 16.2381L16.2383 17Z" fill="#231F20"/>
<path d="M0.5 5C0.5 4.17157 1.17157 3.5 2 3.5H15C15.8284 3.5 16.5 4.17157 16.5 5V15C16.5 15.8284 15.8284 16.5 15 16.5H2C1.17157 16.5 0.5 15.8284 0.5 15V5Z" stroke="#231F20"/>
<path d="M4.5 2C4.5 1.17157 5.17157 0.5 6 0.5H11C11.8284 0.5 12.5 1.17157 12.5 2V3.5H4.5V2Z" stroke="#231F20"/>
<path d="M0 7H7" stroke="black"/>
<path d="M10 7L17 7" stroke="#231F20"/>
<rect x="7" y="6" width="3" height="2" fill="#231F20"/>
</svg>
