<svg width="16" height="15" viewBox="0 0 16 15" fill="none" xmlns="http://www.w3.org/2000/svg">
<path d="M13.5155 1.24999C14.3106 1.24999 14.9068 1.99999 14.9068 2.99998V12.1249C14.9068 13.1249 14.3106 13.8749 13.5155 13.8749H2.38509C1.59006 13.7499 0.993789 12.9999 0.993789 11.9999V2.99998C0.993789 1.99999 1.59006 1.24999 2.38509 1.24999H13.5155ZM13.5155 0H2.38509C1.09317 0 0 1.24999 0 2.99998V12.1249C0 13.6249 1.09317 14.9999 2.38509 14.9999H13.6149C14.9068 14.9999 16 13.6249 16 11.9999V2.99998C15.9006 1.24999 14.8075 0 13.5155 0Z" fill="#333333"/>
</svg>
