<svg width="17" height="17" viewBox="0 0 17 17" fill="none" xmlns="http://www.w3.org/2000/svg">
<path fill-rule="evenodd" clip-rule="evenodd" d="M13.2812 1.0625H14.875C15.4618 1.0625 15.9375 1.5382 15.9375 2.125V8.78429C15.6249 8.60348 15.2621 8.5 14.875 8.5H6.375C5.98795 8.5 5.62506 8.60348 5.3125 8.78429V8.5H3.1875V10.625H4.25V11.6875H3.1875V13.8125H4.25V14.875C4.25 15.2621 4.35348 15.6249 4.53429 15.9375H2.125C1.5382 15.9375 1.0625 15.4618 1.0625 14.875V2.125C1.0625 1.5382 1.5382 1.0625 2.125 1.0625H3.71875V2.65625H3.1875V3.71875H5.3125V2.65625H4.78125V1.0625H7.96875V2.65625H7.4375V3.71875H9.5625V2.65625H9.03125V1.0625H12.2188V2.65625H11.6875V3.71875H13.8125V2.65625H13.2812V1.0625ZM5.3125 13.8125V14.875C5.3125 15.4618 5.7882 15.9375 6.375 15.9375H14.875C15.4618 15.9375 15.9375 15.4618 15.9375 14.875V12.75H5.3125V13.8125ZM15.9375 10.625H5.3125C5.3125 10.0382 5.7882 9.5625 6.375 9.5625H14.875C15.4618 9.5625 15.9375 10.0382 15.9375 10.625ZM17 12.75V10.625V2.125C17 0.951395 16.0486 0 14.875 0H13.2812H12.2188H9.03125H7.96875H4.78125H3.71875H2.125C0.951395 0 0 0.951395 0 2.125V14.875C0 16.0486 0.951395 17 2.125 17H6.375H14.875C16.0486 17 17 16.0486 17 14.875V12.75ZM5.3125 5.3125H3.1875V7.4375H5.3125V5.3125ZM7.4375 5.3125H9.5625V7.4375H7.4375V5.3125ZM13.8125 5.3125H11.6875V7.4375H13.8125V5.3125Z" fill="#231F20"/>
</svg>
