<svg width="16" height="17" viewBox="0 0 16 17" fill="none" xmlns="http://www.w3.org/2000/svg">
<path d="M8.00005 15.9998L1.30005 1.2998" stroke="#231F20" stroke-width="2" stroke-miterlimit="10" stroke-linecap="round"/>
<path d="M1.3 2.6C2.01797 2.6 2.6 2.01797 2.6 1.3C2.6 0.58203 2.01797 0 1.3 0C0.58203 0 0 0.58203 0 1.3C0 2.01797 0.58203 2.6 1.3 2.6Z" fill="#231F20"/>
<path d="M7.80005 0.799934C8.20005 0.999934 8.40005 1.29993 8.60005 1.69993C9.30005 2.89993 9.90005 4.19993 10.5 5.49993C10.6 5.69993 10.5 5.79993 10.3 5.89993C8.60005 6.69993 4.80005 7.09993 4.50005 7.09993C4.20005 7.09993 3.90005 6.89993 3.70005 6.59993C3.50005 6.29993 3.50005 6.09993 3.40005 5.79993C3.20005 5.19993 2.90005 4.59993 2.60005 3.89993C2.40005 3.39993 1.90005 2.89993 1.80005 2.29993C1.80005 1.79993 7.20005 0.399934 7.80005 0.799934Z" fill="#231F20"/>
<path d="M11.7 3.59986C11.9 3.59986 12.1 3.49986 12.3 3.59986C12.5 3.59986 12.6 3.69986 12.7 3.79986C13.5 4.39986 14.4 4.99986 15.4 5.39986C14.3 5.49986 13.5 6.29986 12.5 6.79986C11.8 7.09986 11 7.19986 10.2 7.39986C9.90001 7.39986 9.60001 7.49986 9.30001 7.39986C8.90001 7.39986 8.60001 7.09986 8.40001 6.69986C8.20001 6.09986 8.00001 4.69986 8.40001 4.19986C8.80001 3.99986 9.30001 3.89986 9.70001 3.89986C10.3 3.79986 11.1 3.59986 11.7 3.59986Z" fill="#231F20"/>
</svg>
