<svg width="99" height="25" viewBox="0 0 99 25" fill="none" xmlns="http://www.w3.org/2000/svg">
<path d="M70.2808 11.69L68.6479 14.6003C68.6176 14.6405 68.5822 14.6763 68.5427 14.7068L64.7269 7.92306L64.2432 7.06638L62.3285 3.67627L64.2347 0.284424L70.201 10.863L70.3487 11.1265C70.3851 11.193 70.4033 11.2683 70.4013 11.3446C70.4022 11.4207 70.3841 11.4958 70.3487 11.5627L70.2808 11.69Z" fill="#A71E22"/>
<path d="M2.51385 2.55436L0 4.22236V1.66801L2.51385 0V2.55436Z" fill="#A71E22"/>
<path d="M0.651802 20.393H0V19.6602H0.651802V20.393ZM0.651802 24.9015H0V21.1118H0.651802V24.9015Z" fill="#231F20"/>
<path d="M4.97347 21.59C5.11801 21.4114 5.29579 21.2643 5.49638 21.1572C5.67594 21.0642 5.87424 21.0158 6.07531 21.0159C6.91287 21.0159 7.33109 21.4812 7.32996 22.412V24.8953H6.66613V22.4521C6.68665 22.2162 6.63053 21.9799 6.50654 21.7802C6.44049 21.7072 6.35896 21.6508 6.26828 21.6154C6.1776 21.58 6.0802 21.5665 5.98364 21.5761C5.64408 21.5761 5.31302 21.7768 4.97347 22.1799V24.9006H4.32153V21.1119H4.97347V21.59Z" fill="#231F20"/>
<path d="M13.9703 21.1118L12.5798 24.9058H11.9924L10.6002 21.1118H11.3099L12.2844 24.0786L13.2657 21.1118H13.9703Z" fill="#231F20"/>
<path d="M18.8194 24.9948C18.5685 24.9983 18.3191 24.9533 18.0843 24.8621C17.8692 24.7761 17.6751 24.6427 17.5156 24.4712C17.352 24.2914 17.2266 24.0787 17.1471 23.8465C17.057 23.5753 17.0134 23.2901 17.0181 23.0036C17.0141 22.7208 17.0566 22.4394 17.1437 22.1711C17.2201 21.9402 17.3414 21.7276 17.5003 21.5464C17.6528 21.3757 17.84 21.2417 18.0487 21.1537C18.2715 21.0594 18.5106 21.0125 18.7515 21.0158C18.9979 21.012 19.2425 21.0582 19.4714 21.152C19.6801 21.238 19.867 21.3717 20.018 21.5429C20.1714 21.7246 20.287 21.9366 20.3576 22.1659C20.4407 22.4367 20.4809 22.7196 20.4764 23.0036V23.1659H17.704C17.7138 23.3622 17.7528 23.5558 17.8195 23.74C17.8728 23.8888 17.9535 24.0257 18.0571 24.1431C18.1523 24.2466 18.2681 24.3275 18.3967 24.3805C18.53 24.4352 18.6725 24.4625 18.816 24.4608C18.9256 24.4604 19.0346 24.4451 19.1403 24.4154C19.2438 24.3879 19.3423 24.3438 19.4323 24.2845C19.5174 24.2288 19.5893 24.1542 19.6428 24.0664C19.698 23.9784 19.7275 23.8761 19.7277 23.7714H20.4187C20.395 23.957 20.3337 24.1353 20.2388 24.295C20.1519 24.4452 20.0364 24.5757 19.8992 24.6789C19.7517 24.7859 19.5875 24.8661 19.4136 24.9162C19.2201 24.971 19.0201 24.9974 18.8194 24.9948ZM19.7922 22.6353C19.7699 22.4715 19.7253 22.3118 19.6598 22.1607C19.6059 22.0342 19.5293 21.9194 19.434 21.8221C19.3455 21.7328 19.2404 21.6628 19.125 21.6162C19.006 21.5686 18.8792 21.5449 18.7515 21.5464C18.6253 21.5455 18.4999 21.5679 18.3814 21.6127C18.2665 21.6568 18.1618 21.7251 18.0741 21.8134C17.9766 21.9139 17.8983 22.0323 17.8432 22.1624C17.776 22.3147 17.7313 22.4764 17.7108 22.6423L19.7922 22.6353Z" fill="#231F20"/>
<path d="M25.2403 24.9939C24.2354 24.9939 23.7053 24.5868 23.6498 23.7726H24.3135C24.3135 24.2309 24.6202 24.4606 25.2335 24.4618C25.3549 24.4634 25.476 24.4481 25.5934 24.4164C25.6868 24.3917 25.7749 24.3491 25.8531 24.2908C25.9195 24.2399 25.974 24.1743 26.0126 24.0989C26.0491 24.0236 26.0677 23.9405 26.0669 23.8563C26.0693 23.7813 26.0548 23.7066 26.0245 23.6382C25.9885 23.5733 25.9332 23.5219 25.8666 23.4917C25.7626 23.4386 25.6534 23.3971 25.5407 23.3678C25.3999 23.3277 25.2199 23.2753 24.9959 23.2143C24.7718 23.1532 24.5885 23.1009 24.4306 23.0398C24.2907 22.9954 24.1587 22.9276 24.0402 22.8391C23.9414 22.7627 23.8636 22.661 23.8145 22.5443C23.7612 22.4038 23.7364 22.2536 23.7415 22.1028C23.7397 21.9535 23.7723 21.8058 23.8366 21.6719C23.9018 21.536 23.9958 21.4168 24.1115 21.3229C24.2413 21.2192 24.3886 21.1411 24.5461 21.0926C24.7308 21.0343 24.9232 21.006 25.1164 21.0089C26.0856 21.0089 26.5796 21.3578 26.5931 22.0697H25.9464C25.9227 21.7207 25.663 21.5463 25.1656 21.5463C25.0623 21.5451 24.9592 21.5563 24.8584 21.5794C24.7722 21.5979 24.6897 21.6309 24.614 21.6771C24.5457 21.7144 24.4874 21.7683 24.4442 21.8341C24.4053 21.8991 24.3853 21.9742 24.3865 22.0505C24.3842 22.1128 24.3935 22.1749 24.4137 22.2337C24.4415 22.2917 24.4875 22.3385 24.5444 22.3663C24.641 22.4182 24.7429 22.4592 24.8482 22.4884C24.9823 22.5286 25.1656 22.5774 25.3965 22.635C25.5938 22.6831 25.7887 22.7413 25.9804 22.8095C26.1276 22.8586 26.2663 22.9317 26.3911 23.0258C26.496 23.1072 26.579 23.2147 26.6322 23.3381C26.6892 23.4826 26.7163 23.6377 26.712 23.7935C26.7133 23.9583 26.6779 24.1212 26.6084 24.2697C26.539 24.4182 26.4374 24.5484 26.3114 24.6502C26.1728 24.7637 26.0152 24.85 25.8463 24.905C25.65 24.9669 25.4456 24.9969 25.2403 24.9939Z" fill="#231F20"/>
<path d="M31.6208 24.905C31.4665 24.9402 31.3087 24.9572 31.1506 24.9556C30.9919 24.9619 30.8335 24.937 30.6838 24.8823C30.5766 24.8387 30.4852 24.7618 30.4224 24.6624C30.3568 24.5523 30.3167 24.4281 30.3053 24.2995C30.2865 24.1304 30.2774 23.9603 30.2781 23.79V21.6352H29.8232V21.1118H30.2781V20.1661H30.935V21.1118H31.5376V21.6352H30.935V23.8232C30.9331 23.9307 30.9411 24.0382 30.9588 24.1442C30.971 24.2067 30.9953 24.266 31.0301 24.3187C31.0587 24.358 31.0984 24.3873 31.1438 24.4025C31.1926 24.4156 31.2428 24.4221 31.2932 24.4217C31.3509 24.4217 31.4069 24.4217 31.4629 24.4129C31.5158 24.4093 31.5685 24.4029 31.6208 24.3937V24.905Z" fill="#231F20"/>
<path d="M37.2122 24.5176C36.8552 24.84 36.392 25.0103 35.9171 24.9939C35.7488 24.9955 35.5814 24.969 35.4214 24.9154C35.2765 24.8661 35.1414 24.7905 35.0225 24.6921C34.9111 24.5965 34.8208 24.4775 34.7577 24.3431C34.692 24.2034 34.6588 24.0499 34.661 23.8947C34.661 23.006 35.4039 22.5617 36.8897 22.5617H37.2122C37.2122 22.3994 37.2122 22.2546 37.1986 22.1272C37.1915 22.0142 37.1577 21.9046 37.1002 21.8079C37.0349 21.7153 36.9428 21.6462 36.8371 21.6108C36.6722 21.5591 36.5001 21.5361 36.3278 21.5427C35.7439 21.5427 35.4435 21.7591 35.4231 22.19H34.7594C34.807 21.4049 35.3422 21.0123 36.3652 21.0123C36.5754 21.0105 36.7853 21.031 36.9915 21.0734C37.1639 21.1091 37.3256 21.1862 37.4634 21.2985C37.5993 21.4161 37.7029 21.5683 37.7638 21.7399C37.8403 21.9681 37.876 22.2087 37.8691 22.45V24.8927H37.2122V24.5176ZM37.2122 23.9052V23.0607H36.7573C35.8045 23.0607 35.3281 23.3271 35.3281 23.8598C35.324 23.9465 35.3415 24.0329 35.379 24.1107C35.4164 24.1886 35.4725 24.2553 35.5419 24.3047C35.7094 24.4156 35.9065 24.4699 36.1055 24.46C36.2141 24.4602 36.3223 24.4473 36.428 24.4216C36.533 24.3962 36.6349 24.3588 36.7318 24.3099C36.8277 24.2631 36.9178 24.2045 37 24.1355C37.0801 24.0678 37.1514 23.9898 37.2122 23.9034V23.9052Z" fill="#231F20"/>
<path d="M42.8577 24.9939C41.8529 24.9939 41.3227 24.5868 41.2673 23.7726H41.9259C41.9259 24.2309 42.2325 24.4606 42.8459 24.4617C42.9672 24.4632 43.0883 24.448 43.2057 24.4164C43.2992 24.3916 43.3873 24.349 43.4654 24.2908C43.5318 24.2403 43.5859 24.1746 43.6233 24.0988C43.6605 24.0238 43.6792 23.9405 43.6776 23.8563C43.6804 23.7814 43.6665 23.7067 43.6369 23.6382C43.6009 23.5732 43.5455 23.5219 43.479 23.4916C43.375 23.4385 43.2657 23.397 43.1531 23.3678C43.0139 23.3276 42.8323 23.2753 42.6082 23.2142C42.3842 23.1532 42.2008 23.1008 42.043 23.0398C41.903 22.9954 41.7711 22.9276 41.6526 22.8391C41.5537 22.7626 41.4759 22.661 41.4268 22.5442C41.3736 22.4037 41.3487 22.2535 41.3538 22.1028C41.352 21.9535 41.3846 21.8058 41.4489 21.6718C41.5142 21.536 41.6081 21.4167 41.7239 21.3229C41.8536 21.2192 42.001 21.1411 42.1584 21.0926C42.3432 21.0345 42.5356 21.0062 42.7287 21.0088C43.698 21.0088 44.1919 21.3578 44.2055 22.0697H43.5588C43.535 21.7207 43.2753 21.5462 42.778 21.5462C42.6747 21.5451 42.5716 21.5562 42.4707 21.5794C42.3841 21.5982 42.301 21.6312 42.2246 21.6771C42.1597 21.7158 42.1044 21.7695 42.0634 21.8341C42.0244 21.8991 42.0044 21.9742 42.0056 22.0505C42.0034 22.1127 42.0126 22.1749 42.0328 22.2337C42.0606 22.2917 42.1067 22.3384 42.1635 22.3663C42.2603 22.4179 42.3622 22.4588 42.4673 22.4884C42.6014 22.5285 42.7831 22.5774 43.0156 22.635C43.213 22.683 43.4078 22.7413 43.5995 22.8094C43.7468 22.8586 43.8854 22.9316 44.0103 23.0258C44.1152 23.1071 44.1981 23.2146 44.2513 23.3381C44.3083 23.4826 44.3355 23.6377 44.3311 23.7935C44.3324 23.9583 44.297 24.1212 44.2276 24.2697C44.1581 24.4182 44.0565 24.5483 43.9305 24.6502C43.792 24.7637 43.6343 24.85 43.4654 24.9049C43.2686 24.967 43.0636 24.997 42.8577 24.9939Z" fill="#231F20"/>
<path d="M48.4573 20.393H47.8055V19.6602H48.4573V20.393ZM48.4573 24.9015H47.8055V21.1118H48.4573V24.9015Z" fill="#231F20"/>
<path d="M57.8932 20.393H57.2414V19.6602H57.8932V20.393ZM57.8932 24.9015H57.2414V21.1118H57.8932V24.9015Z" fill="#231F20"/>
<path d="M62.9957 24.905C62.8408 24.9403 62.6824 24.9573 62.5238 24.9556C62.3662 24.9619 62.2088 24.937 62.0604 24.8823C61.9521 24.8397 61.8599 24.7627 61.7973 24.6624C61.7326 24.5519 61.6926 24.4279 61.6802 24.2995C61.662 24.1303 61.6535 23.9602 61.6547 23.79V21.6352H61.1981V21.1118H61.6547V20.1661H62.3099V21.1118H62.9125V21.6352H62.3099V23.8232C62.308 23.9307 62.316 24.0382 62.3337 24.1442C62.3457 24.207 62.3706 24.2665 62.4067 24.3187C62.4342 24.3584 62.4735 24.3877 62.5187 24.4025C62.5675 24.4155 62.6177 24.4219 62.6681 24.4217C62.7258 24.4217 62.7818 24.4217 62.8378 24.4129C62.8907 24.4094 62.9434 24.403 62.9957 24.3937V24.905Z" fill="#231F20"/>
<path d="M68.589 24.4276C68.4565 24.6009 68.2885 24.7421 68.0969 24.841C67.9052 24.94 67.6947 24.9942 67.4804 25C66.6451 25 66.228 24.5346 66.2291 23.6039V21.1118H66.893V23.555C66.8901 23.6899 66.9032 23.8247 66.932 23.9564C66.9531 24.0552 66.9948 24.1481 67.0542 24.2286C67.1098 24.2982 67.1834 24.3502 67.2665 24.3787C67.3673 24.4123 67.4729 24.4282 67.5788 24.4258C67.9473 24.4258 68.2851 24.2234 68.589 23.8168V21.1118H69.2443V24.9058H68.589V24.4276Z" fill="#231F20"/>
<path d="M80.3685 24.5176C80.0111 24.8404 79.5473 25.0108 79.0717 24.9939C78.9035 24.9955 78.7361 24.9689 78.5761 24.9154C78.4315 24.8665 78.2969 24.7908 78.1789 24.692C78.0665 24.5969 77.9756 24.4779 77.9124 24.3431C77.8466 24.2034 77.8135 24.0499 77.8157 23.8947C77.8157 23.006 78.5585 22.5617 80.0443 22.5617H80.3685C80.3685 22.3988 80.3635 22.254 80.3533 22.1272C80.3473 22.0139 80.3134 21.9041 80.2548 21.8079C80.1905 21.7144 80.098 21.6451 79.9917 21.6108C79.8269 21.5591 79.6547 21.5361 79.4825 21.5427C78.9009 21.5427 78.5993 21.7585 78.5778 22.19H77.9107C77.9582 21.4049 78.4935 21.0123 79.5164 21.0123C79.7267 21.0105 79.9366 21.031 80.1428 21.0734C80.3152 21.1091 80.4769 21.1862 80.6147 21.2985C80.7506 21.4161 80.8541 21.5683 80.9151 21.7399C80.9916 21.9681 81.0273 22.2087 81.0203 22.45V24.8927H80.3651L80.3685 24.5176ZM80.3685 23.9051V23.0607H79.9119C78.9591 23.0607 78.4833 23.327 78.4844 23.8598C78.48 23.9464 78.4972 24.0327 78.5343 24.1105C78.5715 24.1884 78.6273 24.2552 78.6966 24.3047C78.8642 24.4154 79.0612 24.4696 79.2601 24.46C79.3687 24.4603 79.477 24.4474 79.5826 24.4216C79.6881 24.3959 79.7906 24.3585 79.8882 24.3099C79.9835 24.2631 80.073 24.2045 80.1547 24.1355C80.2349 24.0673 80.3067 23.9894 80.3685 23.9034V23.9051Z" fill="#231F20"/>
<path d="M86.0124 24.9939C85.0075 24.9939 84.4774 24.5868 84.4219 23.7726H85.0856C85.0856 24.2314 85.3946 24.4617 86.0056 24.4617C86.127 24.4632 86.248 24.448 86.3655 24.4164C86.4589 24.3916 86.547 24.349 86.6252 24.2908C86.6916 24.2398 86.7461 24.1742 86.7847 24.0988C86.8212 24.0235 86.8398 23.9404 86.839 23.8563C86.8422 23.7812 86.8277 23.7063 86.7966 23.6382C86.7606 23.5732 86.7053 23.5219 86.6387 23.4916C86.5347 23.4385 86.4255 23.397 86.3128 23.3678C86.1737 23.3276 85.992 23.2753 85.768 23.2142C85.5439 23.1532 85.3606 23.1008 85.2027 23.0398C85.0628 22.9954 84.9308 22.9276 84.8123 22.8391C84.7135 22.7626 84.6357 22.661 84.5866 22.5442C84.5333 22.4037 84.5085 22.2535 84.5136 22.1028C84.5126 21.9535 84.5451 21.8061 84.6087 21.6718C84.6739 21.536 84.7679 21.4167 84.8836 21.3229C85.0134 21.2192 85.1607 21.1411 85.3182 21.0926C85.5029 21.0345 85.6953 21.0062 85.8885 21.0088C86.8594 21.0088 87.3522 21.3624 87.3669 22.0697H86.7168C86.6948 21.7207 86.4351 21.5462 85.9377 21.5462C85.8344 21.5451 85.7313 21.5562 85.6305 21.5794C85.5445 21.5985 85.462 21.6315 85.3861 21.6771C85.3178 21.7143 85.2595 21.7683 85.2163 21.8341C85.1774 21.8991 85.1574 21.9742 85.1586 22.0505C85.1563 22.1127 85.1655 22.1749 85.1858 22.2337C85.2136 22.2917 85.2596 22.3384 85.3165 22.3663C85.4133 22.4179 85.5151 22.4588 85.6203 22.4884C85.7544 22.5285 85.9377 22.5774 86.1686 22.635C86.366 22.6828 86.5609 22.741 86.7525 22.8094C86.8997 22.8586 87.0384 22.9316 87.1632 23.0258C87.2681 23.1071 87.3511 23.2146 87.4043 23.3381C87.4613 23.4826 87.4884 23.6377 87.4841 23.7935C87.4854 23.9583 87.45 24.1211 87.3805 24.2697C87.3111 24.4182 87.2095 24.5483 87.0835 24.6502C86.9452 24.764 86.7874 24.8504 86.6184 24.9049C86.4222 24.967 86.2177 24.997 86.0124 24.9939Z" fill="#231F20"/>
<path d="M91.6121 20.393H90.9603V19.6602H91.6121V20.393ZM91.6121 24.9015H90.9603V21.1118H91.6121V24.9015Z" fill="#231F20"/>
<path d="M98.3141 24.9023H97.4958L96.5807 23.4189L95.6639 24.9023H94.849L96.2072 22.9303L94.956 21.1118H95.7658L96.5807 22.4329L97.3854 21.1118H98.2038L96.9491 22.9337L98.3141 24.9023Z" fill="#231F20"/>
<path d="M63.7611 7.92299L59.9488 14.7014C59.9081 14.6724 59.8725 14.6364 59.8435 14.595L58.2106 11.69L58.1427 11.5678C58.1063 11.5012 58.087 11.4261 58.0867 11.3497C58.0876 11.2734 58.1068 11.1985 58.1427 11.1316L58.2904 10.8682L60.3884 7.13435L60.4257 7.07153H64.2432L63.7611 7.92299Z" fill="#231F20"/>
<path d="M2.51385 14.4677H0V4.50854H2.51385V14.4677Z" fill="#231F20"/>
<path d="M8.37663 5.76825C9.26154 4.77955 10.2602 4.28461 11.3725 4.28345C13.5826 4.28345 14.6876 5.5077 14.6876 7.9562V14.4677H12.1771V8.16034C12.1963 7.75442 12.1386 7.34852 12.0074 6.96517C11.9563 6.83033 11.8778 6.70827 11.7771 6.60716C11.6764 6.50605 11.5558 6.42824 11.4235 6.37893C11.1093 6.28221 10.7776 6.26131 10.4542 6.31786C9.7866 6.37369 9.12009 6.79767 8.45471 7.5898V14.4677H5.94086V4.50852H8.38511L8.37663 5.76825Z" fill="#231F20"/>
<path d="M26.5321 4.50854L23.0185 14.4677H20.5386L17.0114 4.50854H19.6135C19.8398 5.2681 20.061 6.01545 20.2772 6.75058C20.4933 7.48572 20.7196 8.22318 20.9561 8.96296L21.7777 11.8942L22.5992 8.96296C22.8255 8.2255 23.0518 7.48804 23.2782 6.75058C23.5045 6.01312 23.7308 5.26578 23.9571 4.50854H26.5321Z" fill="#231F20"/>
<path d="M33.3557 14.7015C32.6324 14.7145 31.9129 14.5921 31.2322 14.3403C30.6448 14.1189 30.1126 13.7661 29.674 13.3074C29.2387 12.8404 28.9079 12.2813 28.7048 11.6691C28.4699 10.9695 28.355 10.2333 28.3653 9.49335C28.3556 8.746 28.4704 8.00246 28.7048 7.29493C28.9053 6.68505 29.2306 6.1264 29.6587 5.65658C30.0869 5.20227 30.609 4.85283 31.1864 4.63414C32.4905 4.17138 33.9072 4.16647 35.2143 4.62018C35.7849 4.82969 36.3024 5.16839 36.7284 5.61122C37.1571 6.0726 37.4826 6.62457 37.6823 7.22863C37.9177 7.93409 38.0326 8.6761 38.0218 9.42181V10.0412H30.9505C30.9593 10.4996 31.0342 10.9541 31.1728 11.3899C31.2809 11.7305 31.454 12.0455 31.682 12.3164C31.8842 12.5512 32.1371 12.7341 32.4204 12.8503C32.7169 12.9685 33.0326 13.0277 33.3506 13.0248C33.8156 13.0388 34.275 12.9178 34.6763 12.6758C35.0395 12.4438 35.3043 12.0477 35.4689 11.4841H37.8181C37.7363 11.9733 37.5603 12.4407 37.3004 12.859C37.0468 13.257 36.7205 13.6006 36.3397 13.871C35.9327 14.1555 35.4807 14.3651 35.0039 14.4904C34.4659 14.6348 33.9117 14.7058 33.3557 14.7015ZM35.4757 8.46568C35.3773 7.59678 35.1312 6.94888 34.7374 6.52199C34.3344 6.11199 33.7903 5.88201 33.2233 5.88201C32.6563 5.88201 32.1122 6.11199 31.7092 6.52199C31.3165 6.94888 31.071 7.59678 30.9725 8.46568H35.4757Z" fill="#231F20"/>
<path d="M44.5823 14.7015C43.1383 14.7015 42.0662 14.4316 41.3657 13.8919C40.6652 13.3522 40.2794 12.5502 40.2081 11.4859H42.5539C42.5675 12.0215 42.7338 12.4298 43.0529 12.7072C43.372 12.9846 43.8761 13.1242 44.5636 13.1242C45.1492 13.1242 45.6007 13.0056 45.9215 12.7752C46.0723 12.665 46.1941 12.518 46.2762 12.3475C46.3582 12.177 46.3979 11.9883 46.3917 11.7982C46.3985 11.6235 46.3554 11.4507 46.2678 11.3009C46.1637 11.151 46.024 11.0309 45.8621 10.952C45.6236 10.8346 45.3746 10.7411 45.1186 10.6728C44.8131 10.5838 44.4397 10.4791 43.9865 10.357C43.6753 10.2767 43.3765 10.1953 43.0902 10.1127C42.8102 10.0342 42.5348 9.9392 42.2653 9.82832C42.0137 9.72673 41.7721 9.60052 41.5439 9.45144C41.3269 9.31066 41.1342 9.13377 40.9736 8.92801C40.8086 8.71734 40.6815 8.47803 40.5985 8.22138C40.5031 7.91358 40.4578 7.5917 40.4644 7.26873C40.4611 6.85272 40.5523 6.44166 40.7309 6.06832C40.9135 5.69736 41.1759 5.37398 41.4981 5.12265C41.8681 4.83974 42.2859 4.62973 42.7304 4.50325C43.2714 4.34587 43.8317 4.27006 44.3939 4.27818C45.7393 4.27818 46.7521 4.52594 47.4322 5.02145C48.1123 5.51697 48.4682 6.22884 48.4999 7.15706H46.1863C46.1467 6.30328 45.5724 5.87639 44.4634 5.87639C44.0557 5.85935 43.6511 5.9558 43.2922 6.15556C43.1478 6.23576 43.028 6.35586 42.9465 6.50229C42.8649 6.64873 42.8247 6.81569 42.8305 6.98433C42.8256 7.13964 42.8528 7.29425 42.9103 7.43797C42.9821 7.57631 43.0943 7.688 43.2311 7.75726C43.4516 7.87608 43.6845 7.96857 43.9254 8.03294C44.2241 8.12018 44.623 8.22661 45.1135 8.34874C45.7212 8.50461 46.2542 8.66397 46.7125 8.82681C47.1246 8.96312 47.5139 9.16379 47.8667 9.42178C48.1588 9.63763 48.3925 9.92648 48.5457 10.261C48.7045 10.6583 48.7775 11.0864 48.7596 11.5155C48.7654 11.9567 48.6791 12.394 48.5066 12.7979C48.3312 13.1931 48.065 13.5386 47.7309 13.8047C47.3404 14.1102 46.8968 14.3364 46.4239 14.4712C45.8239 14.6379 45.2037 14.7154 44.5823 14.7015Z" fill="#231F20"/>
<path d="M56.1467 14.4816C55.9294 14.5305 55.7037 14.5671 55.4677 14.595C55.2129 14.6226 54.9568 14.636 54.7005 14.6351C54.2932 14.6447 53.8865 14.5966 53.492 14.4921C53.2021 14.4147 52.931 14.2763 52.6959 14.0855C52.4904 13.9129 52.329 13.6913 52.2257 13.44C52.1134 13.1602 52.0353 12.8671 51.9932 12.5676C51.9411 12.2124 51.915 11.8537 51.9151 11.4945C51.9151 11.1055 51.9151 10.6885 51.9151 10.2488V6.41026H50.6692V4.50845H51.9151V2.02563H54.4204V4.50845H55.9939V6.41026H54.4204V11.2014C54.4151 11.4622 54.435 11.7229 54.4799 11.9796C54.5053 12.1467 54.5656 12.3062 54.6564 12.4472C54.7264 12.5528 54.8266 12.6333 54.9432 12.6775C55.0675 12.7199 55.1977 12.7405 55.3286 12.7386C55.6032 12.7375 55.8775 12.72 56.1501 12.6862L56.1467 14.4816Z" fill="#231F20"/>
<path d="M76.8397 14.7015C75.3935 14.7015 74.3213 14.4316 73.6231 13.8919C72.9249 13.3522 72.539 12.5502 72.4655 11.4859H74.8113C74.8028 11.7145 74.8432 11.9423 74.9294 12.1533C75.0156 12.3643 75.1456 12.5533 75.3103 12.7072C75.6294 12.9864 76.1335 13.1242 76.8193 13.1242C77.4066 13.1242 77.8592 13.0079 78.1772 12.7753C78.3283 12.6653 78.4504 12.5184 78.5325 12.3478C78.6146 12.1773 78.6541 11.9884 78.6474 11.7982C78.6555 11.6234 78.6124 11.4502 78.5235 11.3009C78.4205 11.1499 78.2806 11.0295 78.1178 10.952C77.8799 10.8345 77.6315 10.7411 77.376 10.6728C77.0688 10.5838 76.6971 10.4791 76.2422 10.357C75.9315 10.2767 75.6345 10.1947 75.3476 10.1127C75.0652 10.0347 74.7875 9.93974 74.5159 9.82833C74.2637 9.72672 74.0216 9.60052 73.7928 9.45146C73.5767 9.31019 73.3846 9.13335 73.2242 8.92803C73.0586 8.71749 72.9309 8.47817 72.8474 8.22139C72.7534 7.91329 72.7087 7.59156 72.715 7.26874C72.7137 6.85385 72.8073 6.44446 72.9883 6.07357C73.1704 5.70224 73.4328 5.37874 73.7555 5.1279C74.1255 4.84499 74.5433 4.63498 74.9878 4.5085C75.5282 4.35112 76.0879 4.2753 76.6495 4.28343C77.995 4.28343 79.0078 4.53119 79.6879 5.0267C80.368 5.52222 80.7244 6.23409 80.7573 7.16231H78.442C78.4024 6.30853 77.8287 5.88164 76.7208 5.88164C76.3126 5.8648 75.9074 5.96123 75.5479 6.16081C75.4037 6.24109 75.2842 6.36125 75.2029 6.50771C75.1216 6.65417 75.0818 6.82108 75.0879 6.98958C75.0825 7.14476 75.1092 7.29936 75.166 7.44322C75.239 7.58126 75.3516 7.69277 75.4885 7.76252C75.7082 7.88167 75.9406 7.97418 76.1811 8.03819C76.4815 8.12543 76.8787 8.23186 77.3692 8.35399C77.9758 8.50986 78.5082 8.66922 78.9665 8.83206C79.3771 8.96726 79.7652 9.16613 80.1173 9.4218C80.41 9.63695 80.6439 9.92599 80.7963 10.261C80.9575 10.6577 81.0323 11.0859 81.0153 11.5155C81.0208 11.9565 80.9352 12.3936 80.764 12.7979C80.5885 13.1936 80.3216 13.5391 79.9866 13.8047C79.5963 14.1105 79.1527 14.3368 78.6796 14.4712C78.0802 14.6379 77.4605 14.7154 76.8397 14.7015Z" fill="#231F20"/>
<path d="M98.383 14.4677H95.6214L93.5437 10.856L91.4661 14.4677H88.6943L92.0297 9.31017L88.9743 4.50854H91.6596L93.5437 7.87422L95.4346 4.50854H98.1098L95.0544 9.2997L98.383 14.4677Z" fill="#231F20"/>
<path d="M86.3841 14.4677H83.8702V4.50854H86.3841V14.4677Z" fill="#231F20"/>
<path d="M86.3841 2.55436L83.8702 4.22236V1.66801L86.3841 0V2.55436Z" fill="#A71E22"/>
</svg>
