<svg width="99" height="25" viewBox="0 0 99 25" fill="none" xmlns="http://www.w3.org/2000/svg">
<path d="M70.8397 11.69L69.2068 14.6003C69.1765 14.6405 69.1411 14.6763 69.1015 14.7068L65.2858 7.92306L64.802 7.06638L62.8874 3.67627L64.7935 0.284424L70.7599 10.863L70.9076 11.1265C70.944 11.193 70.9621 11.2683 70.9602 11.3446C70.9611 11.4207 70.943 11.4958 70.9076 11.5627L70.8397 11.69Z" fill="white"/>
<path d="M3.07269 2.55436L0.558838 4.22236V1.66801L3.07269 0V2.55436Z" fill="white"/>
<path d="M1.21064 20.393H0.558838V19.6602H1.21064V20.393ZM1.21064 24.9015H0.558838V21.1118H1.21064V24.9015Z" fill="white"/>
<path d="M5.53231 21.59C5.67685 21.4114 5.85463 21.2643 6.05522 21.1572C6.23478 21.0642 6.43307 21.0158 6.63415 21.0159C7.47171 21.0159 7.88993 21.4812 7.88879 22.412V24.8953H7.22497V22.4521C7.24549 22.2162 7.18936 21.9799 7.06538 21.7802C6.99933 21.7072 6.9178 21.6508 6.82712 21.6154C6.73644 21.58 6.63904 21.5665 6.54247 21.5761C6.20292 21.5761 5.87186 21.7768 5.53231 22.1799V24.9006H4.88037V21.1119H5.53231V21.59Z" fill="white"/>
<path d="M14.5291 21.1118L13.1386 24.9058H12.5512L11.159 21.1118H11.8687L12.8432 24.0786L13.8245 21.1118H14.5291Z" fill="white"/>
<path d="M19.3783 24.9948C19.1273 24.9983 18.878 24.9533 18.6432 24.8621C18.4281 24.7761 18.234 24.6427 18.0744 24.4712C17.9109 24.2914 17.7854 24.0787 17.706 23.8465C17.6159 23.5753 17.5722 23.2901 17.577 23.0036C17.573 22.7208 17.6154 22.4394 17.7026 22.1711C17.779 21.9402 17.9003 21.7276 18.0591 21.5464C18.2117 21.3757 18.3989 21.2417 18.6075 21.1537C18.8303 21.0594 19.0694 21.0125 19.3104 21.0158C19.5567 21.012 19.8014 21.0582 20.0302 21.152C20.2389 21.238 20.4259 21.3717 20.5769 21.5429C20.7303 21.7246 20.8458 21.9366 20.9165 22.1659C20.9996 22.4367 21.0397 22.7196 21.0353 23.0036V23.1659H18.2629C18.2727 23.3622 18.3116 23.5558 18.3783 23.74C18.4317 23.8888 18.5124 24.0257 18.616 24.1431C18.7112 24.2466 18.827 24.3275 18.9556 24.3805C19.0889 24.4352 19.2314 24.4625 19.3749 24.4608C19.4845 24.4604 19.5935 24.4451 19.6992 24.4154C19.8026 24.3879 19.9012 24.3438 19.9912 24.2845C20.0763 24.2288 20.1482 24.1542 20.2017 24.0664C20.2569 23.9784 20.2864 23.8761 20.2866 23.7714H20.9776C20.9539 23.957 20.8926 24.1353 20.7976 24.295C20.7108 24.4452 20.5953 24.5757 20.4581 24.6789C20.3105 24.7859 20.1463 24.8661 19.9725 24.9162C19.779 24.971 19.579 24.9974 19.3783 24.9948ZM20.3511 22.6353C20.3288 22.4715 20.2842 22.3118 20.2187 22.1607C20.1648 22.0342 20.0882 21.9194 19.9929 21.8221C19.9044 21.7328 19.7993 21.6628 19.6839 21.6162C19.5649 21.5686 19.4381 21.5449 19.3104 21.5464C19.1841 21.5455 19.0588 21.5679 18.9403 21.6127C18.8253 21.6568 18.7206 21.7251 18.633 21.8134C18.5355 21.9139 18.4572 22.0323 18.4021 22.1624C18.3348 22.3147 18.2902 22.4764 18.2697 22.6423L20.3511 22.6353Z" fill="white"/>
<path d="M25.7991 24.9939C24.7943 24.9939 24.2641 24.5868 24.2087 23.7726H24.8724C24.8724 24.2309 25.179 24.4606 25.7924 24.4618C25.9137 24.4634 26.0348 24.4481 26.1522 24.4164C26.2457 24.3917 26.3338 24.3491 26.4119 24.2908C26.4784 24.2399 26.5329 24.1743 26.5715 24.0989C26.6079 24.0236 26.6265 23.9405 26.6258 23.8563C26.6281 23.7813 26.6136 23.7066 26.5833 23.6382C26.5474 23.5733 26.492 23.5219 26.4255 23.4917C26.3215 23.4386 26.2122 23.3971 26.0996 23.3678C25.9587 23.3277 25.7788 23.2753 25.5547 23.2143C25.3307 23.1532 25.1473 23.1009 24.9895 23.0398C24.8495 22.9954 24.7176 22.9276 24.5991 22.8391C24.5002 22.7627 24.4224 22.661 24.3733 22.5443C24.3201 22.4038 24.2952 22.2536 24.3003 22.1028C24.2985 21.9535 24.3311 21.8058 24.3954 21.6719C24.4607 21.536 24.5546 21.4168 24.6704 21.3229C24.8001 21.2192 24.9475 21.1411 25.1049 21.0926C25.2896 21.0343 25.482 21.006 25.6752 21.0089C26.6444 21.0089 27.1384 21.3578 27.152 22.0697H26.5053C26.4815 21.7207 26.2218 21.5463 25.7245 21.5463C25.6211 21.5451 25.5181 21.5563 25.4172 21.5794C25.3311 21.5979 25.2485 21.6309 25.1728 21.6771C25.1046 21.7144 25.0463 21.7683 25.0031 21.8341C24.9641 21.8991 24.9441 21.9742 24.9454 22.0505C24.9431 22.1128 24.9523 22.1749 24.9725 22.2337C25.0003 22.2917 25.0464 22.3385 25.1032 22.3663C25.1999 22.4182 25.3018 22.4592 25.407 22.4884C25.5411 22.5286 25.7245 22.5774 25.9553 22.635C26.1527 22.6831 26.3475 22.7413 26.5392 22.8095C26.6865 22.8586 26.8251 22.9317 26.95 23.0258C27.0549 23.1072 27.1378 23.2147 27.191 23.3381C27.248 23.4826 27.2752 23.6377 27.2708 23.7935C27.2721 23.9583 27.2367 24.1212 27.1673 24.2697C27.0978 24.4182 26.9962 24.5484 26.8702 24.6502C26.7317 24.7637 26.574 24.85 26.4051 24.905C26.2089 24.9669 26.0044 24.9969 25.7991 24.9939Z" fill="white"/>
<path d="M32.1797 24.905C32.0253 24.9402 31.8676 24.9572 31.7095 24.9556C31.5508 24.9619 31.3923 24.937 31.2427 24.8823C31.1355 24.8387 31.0441 24.7618 30.9813 24.6624C30.9157 24.5523 30.8756 24.4281 30.8642 24.2995C30.8454 24.1304 30.8363 23.9603 30.837 23.79V21.6352H30.3821V21.1118H30.837V20.1661H31.4939V21.1118H32.0965V21.6352H31.4939V23.8232C31.492 23.9307 31.5 24.0382 31.5177 24.1442C31.5299 24.2067 31.5541 24.266 31.589 24.3187C31.6175 24.358 31.6573 24.3873 31.7027 24.4025C31.7514 24.4156 31.8017 24.4221 31.8521 24.4217C31.9098 24.4217 31.9658 24.4217 32.0218 24.4129C32.0747 24.4093 32.1274 24.4029 32.1797 24.3937V24.905Z" fill="white"/>
<path d="M37.771 24.5176C37.414 24.84 36.9508 25.0103 36.4759 24.9939C36.3076 24.9955 36.1402 24.969 35.9802 24.9154C35.8353 24.8661 35.7002 24.7905 35.5813 24.6921C35.4699 24.5965 35.3796 24.4775 35.3165 24.3431C35.2508 24.2034 35.2176 24.0499 35.2198 23.8947C35.2198 23.006 35.9627 22.5617 37.4485 22.5617H37.771C37.771 22.3994 37.771 22.2546 37.7574 22.1272C37.7503 22.0142 37.7165 21.9046 37.659 21.8079C37.5937 21.7153 37.5016 21.6462 37.3959 21.6108C37.231 21.5591 37.0589 21.5361 36.8866 21.5427C36.3027 21.5427 36.0023 21.7591 35.9819 22.19H35.3182C35.3658 21.4049 35.901 21.0123 36.924 21.0123C37.1343 21.0105 37.3441 21.031 37.5503 21.0734C37.7227 21.1091 37.8844 21.1862 38.0222 21.2985C38.1581 21.4161 38.2617 21.5683 38.3226 21.7399C38.3991 21.9681 38.4348 22.2087 38.4279 22.45V24.8927H37.771V24.5176ZM37.771 23.9052V23.0607H37.3161C36.3633 23.0607 35.8869 23.3271 35.8869 23.8598C35.8828 23.9465 35.9003 24.0329 35.9378 24.1107C35.9752 24.1886 36.0313 24.2553 36.1007 24.3047C36.2683 24.4156 36.4653 24.4699 36.6643 24.46C36.7729 24.4602 36.8811 24.4473 36.9868 24.4216C37.0918 24.3962 37.1937 24.3588 37.2906 24.3099C37.3865 24.2631 37.4766 24.2045 37.5588 24.1355C37.6389 24.0678 37.7102 23.9898 37.771 23.9034V23.9052Z" fill="white"/>
<path d="M43.4166 24.9939C42.4117 24.9939 41.8815 24.5868 41.8261 23.7726H42.4847C42.4847 24.2309 42.7913 24.4606 43.4047 24.4617C43.5261 24.4632 43.6471 24.448 43.7645 24.4164C43.858 24.3916 43.9461 24.349 44.0242 24.2908C44.0906 24.2403 44.1447 24.1746 44.1821 24.0988C44.2193 24.0238 44.238 23.9405 44.2364 23.8563C44.2392 23.7814 44.2253 23.7067 44.1957 23.6382C44.1597 23.5732 44.1043 23.5219 44.0378 23.4916C43.9338 23.4385 43.8245 23.397 43.7119 23.3678C43.5727 23.3276 43.3911 23.2753 43.167 23.2142C42.943 23.1532 42.7597 23.1008 42.6018 23.0398C42.4618 22.9954 42.3299 22.9276 42.2114 22.8391C42.1125 22.7626 42.0347 22.661 41.9856 22.5442C41.9324 22.4037 41.9075 22.2535 41.9126 22.1028C41.9108 21.9535 41.9434 21.8058 42.0077 21.6718C42.073 21.536 42.1669 21.4167 42.2827 21.3229C42.4124 21.2192 42.5598 21.1411 42.7172 21.0926C42.902 21.0345 43.0944 21.0062 43.2875 21.0088C44.2568 21.0088 44.7507 21.3578 44.7643 22.0697H44.1176C44.0938 21.7207 43.8341 21.5462 43.3368 21.5462C43.2335 21.5451 43.1304 21.5562 43.0295 21.5794C42.9429 21.5982 42.8598 21.6312 42.7834 21.6771C42.7185 21.7158 42.6632 21.7695 42.6222 21.8341C42.5832 21.8991 42.5632 21.9742 42.5645 22.0505C42.5622 22.1127 42.5714 22.1749 42.5916 22.2337C42.6194 22.2917 42.6655 22.3384 42.7223 22.3663C42.8191 22.4179 42.921 22.4588 43.0261 22.4884C43.1602 22.5285 43.3419 22.5774 43.5744 22.635C43.7718 22.683 43.9666 22.7413 44.1583 22.8094C44.3056 22.8586 44.4443 22.9316 44.5691 23.0258C44.674 23.1071 44.7569 23.2146 44.8101 23.3381C44.8671 23.4826 44.8943 23.6377 44.8899 23.7935C44.8912 23.9583 44.8558 24.1212 44.7864 24.2697C44.717 24.4182 44.6153 24.5483 44.4893 24.6502C44.3508 24.7637 44.1931 24.85 44.0242 24.9049C43.8274 24.967 43.6224 24.997 43.4166 24.9939Z" fill="white"/>
<path d="M49.0162 20.393H48.3644V19.6602H49.0162V20.393ZM49.0162 24.9015H48.3644V21.1118H49.0162V24.9015Z" fill="white"/>
<path d="M58.452 20.393H57.8002V19.6602H58.452V20.393ZM58.452 24.9015H57.8002V21.1118H58.452V24.9015Z" fill="white"/>
<path d="M63.5545 24.905C63.3996 24.9403 63.2413 24.9573 63.0826 24.9556C62.925 24.9619 62.7677 24.937 62.6192 24.8823C62.511 24.8397 62.4188 24.7627 62.3561 24.6624C62.2915 24.5519 62.2515 24.4279 62.239 24.2995C62.2209 24.1303 62.2124 23.9602 62.2136 23.79V21.6352H61.757V21.1118H62.2136V20.1661H62.8687V21.1118H63.4713V21.6352H62.8687V23.8232C62.8668 23.9307 62.8748 24.0382 62.8925 24.1442C62.9045 24.207 62.9294 24.2665 62.9655 24.3187C62.993 24.3584 63.0324 24.3877 63.0775 24.4025C63.1263 24.4155 63.1765 24.4219 63.2269 24.4217C63.2846 24.4217 63.3406 24.4217 63.3966 24.4129C63.4496 24.4094 63.5022 24.403 63.5545 24.3937V24.905Z" fill="white"/>
<path d="M69.1479 24.4276C69.0154 24.6009 68.8473 24.7421 68.6557 24.841C68.4641 24.94 68.2536 24.9942 68.0392 25C67.2039 25 66.7868 24.5346 66.788 23.6039V21.1118H67.4518V23.555C67.4489 23.6899 67.462 23.8247 67.4908 23.9564C67.5119 24.0552 67.5536 24.1481 67.6131 24.2286C67.6687 24.2982 67.7422 24.3502 67.8253 24.3787C67.9261 24.4123 68.0317 24.4282 68.1377 24.4258C68.5061 24.4258 68.844 24.2234 69.1479 23.8168V21.1118H69.8032V24.9058H69.1479V24.4276Z" fill="white"/>
<path d="M80.9274 24.5176C80.5699 24.8404 80.1061 25.0108 79.6306 24.9939C79.4623 24.9955 79.2949 24.9689 79.1349 24.9154C78.9904 24.8665 78.8557 24.7908 78.7377 24.692C78.6253 24.5969 78.5344 24.4779 78.4712 24.3431C78.4054 24.2034 78.3723 24.0499 78.3745 23.8947C78.3745 23.006 79.1174 22.5617 80.6032 22.5617H80.9274C80.9274 22.3988 80.9223 22.254 80.9121 22.1272C80.9061 22.0139 80.8722 21.9041 80.8136 21.8079C80.7493 21.7144 80.6569 21.6451 80.5505 21.6108C80.3857 21.5591 80.2136 21.5361 80.0413 21.5427C79.4597 21.5427 79.1581 21.7585 79.1366 22.19H78.4695C78.5171 21.4049 79.0523 21.0123 80.0753 21.0123C80.2855 21.0105 80.4954 21.031 80.7016 21.0734C80.874 21.1091 81.0357 21.1862 81.1735 21.2985C81.3094 21.4161 81.413 21.5683 81.4739 21.7399C81.5504 21.9681 81.5861 22.2087 81.5792 22.45V24.8927H80.924L80.9274 24.5176ZM80.9274 23.9051V23.0607H80.4708C79.518 23.0607 79.0421 23.327 79.0433 23.8598C79.0389 23.9464 79.056 24.0327 79.0932 24.1105C79.1303 24.1884 79.1861 24.2552 79.2554 24.3047C79.423 24.4154 79.62 24.4696 79.819 24.46C79.9276 24.4603 80.0358 24.4474 80.1415 24.4216C80.247 24.3959 80.3494 24.3585 80.447 24.3099C80.5424 24.2631 80.6318 24.2045 80.7135 24.1355C80.7937 24.0673 80.8655 23.9894 80.9274 23.9034V23.9051Z" fill="white"/>
<path d="M86.5712 24.9939C85.5664 24.9939 85.0362 24.5868 84.9808 23.7726H85.6445C85.6445 24.2314 85.9534 24.4617 86.5645 24.4617C86.6858 24.4632 86.8069 24.448 86.9243 24.4164C87.0178 24.3916 87.1059 24.349 87.184 24.2908C87.2505 24.2398 87.305 24.1742 87.3436 24.0988C87.38 24.0235 87.3986 23.9404 87.3979 23.8563C87.4011 23.7812 87.3865 23.7063 87.3554 23.6382C87.3195 23.5732 87.2641 23.5219 87.1976 23.4916C87.0936 23.4385 86.9843 23.397 86.8717 23.3678C86.7325 23.3276 86.5509 23.2753 86.3268 23.2142C86.1028 23.1532 85.9194 23.1008 85.7616 23.0398C85.6216 22.9954 85.4897 22.9276 85.3712 22.8391C85.2723 22.7626 85.1945 22.661 85.1454 22.5442C85.0922 22.4037 85.0673 22.2535 85.0724 22.1028C85.0714 21.9535 85.104 21.8061 85.1675 21.6718C85.2328 21.536 85.3267 21.4167 85.4425 21.3229C85.5722 21.2192 85.7196 21.1411 85.877 21.0926C86.0618 21.0345 86.2542 21.0062 86.4473 21.0088C87.4182 21.0088 87.9111 21.3624 87.9258 22.0697H87.2757C87.2536 21.7207 86.9939 21.5462 86.4966 21.5462C86.3932 21.5451 86.2902 21.5562 86.1893 21.5794C86.1034 21.5985 86.0209 21.6315 85.9449 21.6771C85.8767 21.7143 85.8184 21.7683 85.7752 21.8341C85.7362 21.8991 85.7162 21.9742 85.7175 22.0505C85.7152 22.1127 85.7244 22.1749 85.7446 22.2337C85.7724 22.2917 85.8185 22.3384 85.8753 22.3663C85.9721 22.4179 86.074 22.4588 86.1791 22.4884C86.3132 22.5285 86.4966 22.5774 86.7274 22.635C86.9248 22.6828 87.1197 22.741 87.3113 22.8094C87.4586 22.8586 87.5972 22.9316 87.7221 23.0258C87.827 23.1071 87.9099 23.2146 87.9631 23.3381C88.0201 23.4826 88.0473 23.6377 88.0429 23.7935C88.0442 23.9583 88.0088 24.1211 87.9394 24.2697C87.8699 24.4182 87.7683 24.5483 87.6423 24.6502C87.504 24.764 87.3463 24.8504 87.1772 24.9049C86.981 24.967 86.7765 24.997 86.5712 24.9939Z" fill="white"/>
<path d="M92.1709 20.393H91.5191V19.6602H92.1709V20.393ZM92.1709 24.9015H91.5191V21.1118H92.1709V24.9015Z" fill="white"/>
<path d="M98.873 24.9023H98.0547L97.1396 23.4189L96.2228 24.9023H95.4079L96.7661 22.9303L95.5148 21.1118H96.3247L97.1396 22.4329L97.9443 21.1118H98.7626L97.508 22.9337L98.873 24.9023Z" fill="white"/>
<path d="M64.32 7.92299L60.5076 14.7014C60.4669 14.6724 60.4314 14.6364 60.4024 14.595L58.7695 11.69L58.7016 11.5678C58.6652 11.5012 58.6459 11.4261 58.6456 11.3497C58.6465 11.2734 58.6657 11.1985 58.7016 11.1316L58.8493 10.8682L60.9473 7.13435L60.9846 7.07153H64.8021L64.32 7.92299Z" fill="white"/>
<path d="M3.07269 14.4677H0.558838V4.50854H3.07269V14.4677Z" fill="white"/>
<path d="M8.93546 5.76825C9.82038 4.77955 10.819 4.28461 11.9314 4.28345C14.1414 4.28345 15.2464 5.5077 15.2464 7.9562V14.4677H12.7359V8.16034C12.7551 7.75442 12.6975 7.34852 12.5662 6.96517C12.5151 6.83033 12.4366 6.70827 12.3359 6.60716C12.2352 6.50605 12.1146 6.42824 11.9823 6.37893C11.6681 6.28221 11.3364 6.26131 11.0131 6.31786C10.3454 6.37369 9.67893 6.79767 9.01355 7.5898V14.4677H6.49969V4.50852H8.94395L8.93546 5.76825Z" fill="white"/>
<path d="M27.0909 4.50854L23.5773 14.4677H21.0974L17.5702 4.50854H20.1723C20.3986 5.2681 20.6199 6.01545 20.836 6.75058C21.0521 7.48572 21.2784 8.22318 21.5149 8.96296L22.3365 11.8942L23.158 8.96296C23.3844 8.2255 23.6107 7.48804 23.837 6.75058C24.0633 6.01312 24.2896 5.26578 24.516 4.50854H27.0909Z" fill="white"/>
<path d="M33.9145 14.7015C33.1912 14.7145 32.4717 14.5921 31.791 14.3403C31.2036 14.1189 30.6714 13.7661 30.2328 13.3074C29.7975 12.8404 29.4667 12.2813 29.2636 11.6691C29.0287 10.9695 28.9138 10.2333 28.9241 9.49335C28.9144 8.746 29.0292 8.00246 29.2636 7.29493C29.4641 6.68505 29.7894 6.1264 30.2175 5.65658C30.6457 5.20227 31.1678 4.85283 31.7452 4.63414C33.0493 4.17138 34.466 4.16647 35.7731 4.62018C36.3437 4.82969 36.8612 5.16839 37.2872 5.61122C37.7159 6.0726 38.0414 6.62457 38.2412 7.22863C38.4765 7.93409 38.5914 8.6761 38.5806 9.42181V10.0412H31.5093C31.5181 10.4996 31.5931 10.9541 31.7316 11.3899C31.8397 11.7305 32.0128 12.0455 32.2408 12.3164C32.443 12.5512 32.6959 12.7341 32.9792 12.8503C33.2757 12.9685 33.5914 13.0277 33.9094 13.0248C34.3744 13.0388 34.8338 12.9178 35.2351 12.6758C35.5983 12.4438 35.8631 12.0477 36.0277 11.4841H38.3769C38.2951 11.9733 38.1191 12.4407 37.8592 12.859C37.6056 13.257 37.2793 13.6006 36.8985 13.871C36.4915 14.1555 36.0395 14.3651 35.5627 14.4904C35.0247 14.6348 34.4705 14.7058 33.9145 14.7015ZM36.0345 8.46568C35.9361 7.59678 35.69 6.94888 35.2962 6.52199C34.8932 6.11199 34.3491 5.88201 33.7821 5.88201C33.2151 5.88201 32.671 6.11199 32.268 6.52199C31.8753 6.94888 31.6298 7.59678 31.5313 8.46568H36.0345Z" fill="white"/>
<path d="M45.1411 14.7015C43.6971 14.7015 42.625 14.4316 41.9245 13.8919C41.224 13.3522 40.8382 12.5502 40.7669 11.4859H43.1127C43.1263 12.0215 43.2926 12.4298 43.6117 12.7072C43.9308 12.9846 44.435 13.1242 45.1224 13.1242C45.708 13.1242 46.1595 13.0056 46.4803 12.7752C46.6311 12.665 46.753 12.518 46.835 12.3475C46.917 12.177 46.9567 11.9883 46.9505 11.7982C46.9573 11.6235 46.9142 11.4507 46.8266 11.3009C46.7225 11.151 46.5828 11.0309 46.4209 10.952C46.1824 10.8346 45.9334 10.7411 45.6774 10.6728C45.3719 10.5838 44.9985 10.4791 44.5453 10.357C44.2341 10.2767 43.9354 10.1953 43.6491 10.1127C43.369 10.0342 43.0936 9.9392 42.8241 9.82832C42.5725 9.72673 42.3309 9.60052 42.1027 9.45144C41.8857 9.31066 41.693 9.13377 41.5324 8.92801C41.3674 8.71734 41.2403 8.47803 41.1573 8.22138C41.0619 7.91358 41.0166 7.5917 41.0232 7.26873C41.0199 6.85272 41.1111 6.44166 41.2897 6.06832C41.4723 5.69736 41.7347 5.37398 42.0569 5.12265C42.4269 4.83974 42.8448 4.62973 43.2892 4.50325C43.8302 4.34587 44.3905 4.27006 44.9527 4.27818C46.2981 4.27818 47.3109 4.52594 47.991 5.02145C48.6711 5.51697 49.027 6.22884 49.0587 7.15706H46.7451C46.7055 6.30328 46.1312 5.87639 45.0223 5.87639C44.6145 5.85935 44.2099 5.9558 43.851 6.15556C43.7066 6.23576 43.5868 6.35586 43.5053 6.50229C43.4237 6.64873 43.3835 6.81569 43.3894 6.98433C43.3845 7.13964 43.4116 7.29425 43.4691 7.43797C43.5409 7.57631 43.6531 7.688 43.7899 7.75726C44.0104 7.87608 44.2433 7.96857 44.4842 8.03294C44.7829 8.12018 45.1818 8.22661 45.6724 8.34874C46.28 8.50461 46.813 8.66397 47.2713 8.82681C47.6835 8.96312 48.0727 9.16379 48.4255 9.42178C48.7176 9.63763 48.9513 9.92648 49.1045 10.261C49.2633 10.6583 49.3363 11.0864 49.3184 11.5155C49.3242 11.9567 49.2379 12.394 49.0655 12.7979C48.89 13.1931 48.6238 13.5386 48.2897 13.8047C47.8992 14.1102 47.4557 14.3364 46.9827 14.4712C46.3827 14.6379 45.7625 14.7154 45.1411 14.7015Z" fill="white"/>
<path d="M56.7055 14.4816C56.4882 14.5305 56.2625 14.5671 56.0265 14.595C55.7717 14.6226 55.5156 14.636 55.2593 14.6351C54.852 14.6447 54.4453 14.5966 54.0508 14.4921C53.7609 14.4147 53.4898 14.2763 53.2547 14.0855C53.0492 13.9129 52.8878 13.6913 52.7845 13.44C52.6722 13.1602 52.5941 12.8671 52.552 12.5676C52.4999 12.2124 52.4738 11.8537 52.4739 11.4945C52.4739 11.1055 52.4739 10.6885 52.4739 10.2488V6.41026H51.228V4.50845H52.4739V2.02563H54.9792V4.50845H56.5527V6.41026H54.9792V11.2014C54.9739 11.4622 54.9938 11.7229 55.0387 11.9796C55.0642 12.1467 55.1244 12.3062 55.2152 12.4472C55.2852 12.5528 55.3855 12.6333 55.5021 12.6775C55.6263 12.7199 55.7565 12.7405 55.8874 12.7386C56.162 12.7375 56.4363 12.72 56.7089 12.6862L56.7055 14.4816Z" fill="white"/>
<path d="M77.3985 14.7015C75.9523 14.7015 74.8801 14.4316 74.1819 13.8919C73.4837 13.3522 73.0978 12.5502 73.0243 11.4859H75.3701C75.3617 11.7145 75.402 11.9423 75.4882 12.1533C75.5744 12.3643 75.7044 12.5533 75.8691 12.7072C76.1882 12.9864 76.6924 13.1242 77.3781 13.1242C77.9654 13.1242 78.4181 13.0079 78.736 12.7753C78.8872 12.6653 79.0093 12.5184 79.0914 12.3478C79.1734 12.1773 79.2129 11.9884 79.2062 11.7982C79.2144 11.6234 79.1712 11.4502 79.0823 11.3009C78.9793 11.1499 78.8394 11.0295 78.6766 10.952C78.4387 10.8345 78.1903 10.7411 77.9349 10.6728C77.6276 10.5838 77.2559 10.4791 76.801 10.357C76.4904 10.2767 76.1933 10.1947 75.9065 10.1127C75.6241 10.0347 75.3464 9.93974 75.0748 9.82833C74.8226 9.72672 74.5804 9.60052 74.3517 9.45146C74.1355 9.31019 73.9434 9.13335 73.783 8.92803C73.6174 8.71749 73.4898 8.47817 73.4062 8.22139C73.3122 7.91329 73.2675 7.59156 73.2738 7.26874C73.2726 6.85385 73.3662 6.44446 73.5471 6.07357C73.7292 5.70224 73.9917 5.37874 74.3143 5.1279C74.6844 4.84499 75.1022 4.63498 75.5466 4.5085C76.087 4.35112 76.6468 4.2753 77.2084 4.28343C78.5539 4.28343 79.5666 4.53119 80.2467 5.0267C80.9268 5.52222 81.2833 6.23409 81.3161 7.16231H79.0008C78.9612 6.30853 78.3875 5.88164 77.2797 5.88164C76.8714 5.8648 76.4663 5.96123 76.1068 6.16081C75.9625 6.24109 75.843 6.36125 75.7617 6.50771C75.6804 6.65417 75.6406 6.82108 75.6468 6.98958C75.6414 7.14476 75.668 7.29936 75.7249 7.44322C75.7978 7.58126 75.9104 7.69277 76.0474 7.76252C76.267 7.88167 76.4994 7.97418 76.7399 8.03819C77.0403 8.12543 77.4375 8.23186 77.9281 8.35399C78.5346 8.50986 79.067 8.66922 79.5253 8.83206C79.9359 8.96726 80.324 9.16613 80.6762 9.4218C80.9689 9.63695 81.2027 9.92599 81.3551 10.261C81.5164 10.6577 81.5911 11.0859 81.5741 11.5155C81.5797 11.9565 81.494 12.3936 81.3229 12.7979C81.1473 13.1936 80.8805 13.5391 80.5455 13.8047C80.1552 14.1105 79.7115 14.3368 79.2385 14.4712C78.639 14.6379 78.0194 14.7154 77.3985 14.7015Z" fill="white"/>
<path d="M98.9419 14.4677H96.1802L94.1026 10.856L92.025 14.4677H89.2531L92.5885 9.31017L89.5332 4.50854H92.2185L94.1026 7.87422L95.9935 4.50854H98.6686L95.6133 9.2997L98.9419 14.4677Z" fill="white"/>
<path d="M86.9429 14.4677H84.4291V4.50854H86.9429V14.4677Z" fill="white"/>
<path d="M86.9429 2.55436L84.4291 4.22236V1.66801L86.9429 0V2.55436Z" fill="white"/>
</svg>
