<svg width="16" height="16" viewBox="0 0 16 16" fill="none" xmlns="http://www.w3.org/2000/svg">
<path d="M10.6875 6.01184V5.63831C10.6875 5.02783 10.1924 4.53125 9.58398 4.53125H6.35352C5.74512 4.53125 5.25 5.02783 5.25 5.63831V6.01184C5.25 6.81006 6.02612 7.46716 6.5929 7.94702C6.61353 7.96448 6.63379 7.98169 6.65356 7.99841C6.63269 8.01624 6.61121 8.03442 6.58923 8.05298C6.02258 8.53284 5.24646 9.18994 5.24646 9.98816V10.3617C5.24646 10.3962 5.24915 10.4299 5.25452 10.4628C5.30566 11.026 5.77905 11.4688 6.35352 11.4688H9.58398C10.1924 11.4688 10.6875 10.9722 10.6875 10.3617V9.98816C10.6875 9.18982 9.91125 8.53271 9.3446 8.05298C9.32324 8.03491 9.30237 8.01721 9.2821 8C9.30237 7.98267 9.32324 7.96509 9.3446 7.94702C9.91125 7.46729 10.6875 6.81018 10.6875 6.01184ZM9.4375 9.98816V10.2188H6.49646V9.98938C6.49646 9.98828 6.50671 9.87427 6.7406 9.61365C6.93127 9.40125 7.17871 9.19189 7.39697 9.00708C7.45361 8.95911 7.50781 8.91321 7.55896 8.86902C7.5741 8.85803 7.58875 8.84631 7.60303 8.83386C7.79883 8.66223 7.927 8.43018 7.96875 8.17944C8.0105 8.43018 8.13867 8.66211 8.33459 8.83386C8.39709 8.88867 8.46497 8.94617 8.53687 9.00696C8.75513 9.19177 9.00256 9.40125 9.19324 9.61365C9.42725 9.87427 9.43738 9.98816 9.4375 9.98816ZM9.19324 6.38635C9.00256 6.59875 8.75513 6.80823 8.53687 6.99304C8.46497 7.05383 8.39709 7.11133 8.33447 7.16626C8.13867 7.33789 8.0105 7.56982 7.96875 7.82056C7.927 7.5697 7.79883 7.33777 7.60303 7.16614C7.54041 7.11133 7.47241 7.05383 7.40051 6.99292C7.18225 6.80811 6.93481 6.59875 6.74426 6.38635C6.51025 6.12573 6.50012 6.01184 6.5 6.01184V5.78125H9.4375V6.01062C9.43738 6.01172 9.42725 6.12561 9.19324 6.38635ZM0 4.1875V2.6875C0 2.34229 0.279785 2.0625 0.625 2.0625C0.970215 2.0625 1.25 2.34229 1.25 2.6875V3.70422C1.86499 2.73889 2.68164 1.91321 3.65137 1.28406C4.94629 0.444092 6.44995 0 8 0C10.1368 0 12.1459 0.832153 13.6569 2.34314C15.1678 3.85413 16 5.86316 16 8C16 8.34521 15.7202 8.625 15.375 8.625C15.0298 8.625 14.75 8.34521 14.75 8C14.75 4.27808 11.7219 1.25 8 1.25C5.63538 1.25 3.44153 2.50488 2.22729 4.5H3.0625C3.40771 4.5 3.6875 4.77979 3.6875 5.125C3.6875 5.47021 3.40771 5.75 3.0625 5.75H1.5625C0.700928 5.75 0 5.04907 0 4.1875ZM16 11.8125V13.2812C16 13.6265 15.7202 13.9062 15.375 13.9062C15.0298 13.9062 14.75 13.6265 14.75 13.2812V12.2467C14.1316 13.2333 13.3035 14.0762 12.3174 14.7159C11.0225 15.5559 9.5188 16 7.96875 16C5.83313 16 3.82922 15.1674 2.32617 13.6555C0.826172 12.1466 0 10.1382 0 8C0 7.65479 0.279785 7.375 0.625 7.375C0.970215 7.375 1.25 7.65479 1.25 8C1.25 11.7219 4.26404 14.75 7.96875 14.75C10.3333 14.75 12.5272 13.4951 13.7415 11.5H12.9062C12.561 11.5 12.2812 11.2202 12.2812 10.875C12.2812 10.5298 12.561 10.25 12.9062 10.25H14.4375C15.2991 10.25 16 10.9509 16 11.8125Z" fill="#231F20"/>
</svg>
