<svg width="30" height="30" viewBox="0 0 30 30" fill="none" xmlns="http://www.w3.org/2000/svg">
<path d="M13.7519 29.9998L4.53595 28.904L1.19995 13.904L13.176 12.6621L13.7519 29.9998Z" fill="#BF2828"/>
<path d="M7.92005 14.4155L4.68005 14.8051L7.27205 29.2451L9.93605 29.5373L7.92005 14.4155Z" fill="#008A83"/>
<path d="M13.752 29.9998L25.536 28.904L28.872 13.904L13.176 12.6621L13.752 29.9998Z" fill="#FF433B"/>
<path d="M18.96 29.5128L22.2 29.2206L24.84 13.5875L20.52 13.2466L18.96 29.5128Z" fill="#00C7BD"/>
<path d="M4.44005 2.48389C4.44005 2.48389 2.49605 6.6235 10.68 12.492L12.24 11.518C12.24 11.518 7.58405 7.06181 7.75205 3.14135L4.44005 2.48389Z" fill="#008A83"/>
<path d="M16.0321 10.5682C16.0321 10.5682 12.5281 1.02273 8.06406 0L4.44006 2.48377C4.44006 2.48377 9.98406 5.18669 12.5761 11.4205L16.0321 10.5682Z" fill="#00C7BD"/>
<path d="M3.07199 7.67007C3.07199 7.67007 2.30399 10.4704 7.55999 12.1506L8.37599 11.2496C8.37599 11.2496 5.27999 9.64248 5.03999 7.35352L3.07199 7.67007Z" fill="#005450"/>
<path d="M10.4879 9.91053C10.4879 9.91053 7.63195 5.11345 4.96795 5.45436L3.09595 7.64592C3.09595 7.64592 6.52795 8.03553 8.59195 11.1037L10.4879 9.91053Z" fill="#00C7BD"/>
<path opacity="0.2" d="M13.176 12.6621L1.19995 13.904L1.65595 16.5582L13.368 14.4641L13.176 12.6621Z" fill="#231F20"/>
<path d="M24.888 2.77588C24.888 2.77588 26.832 6.91549 18.648 12.784L17.088 11.81C17.088 11.81 21.744 7.3538 21.576 3.43335L24.888 2.77588Z" fill="#008A83"/>
<path d="M13.296 10.8602C13.296 10.8602 16.8 1.31472 21.264 0.291992L24.888 2.77576C24.888 2.77576 19.344 5.47868 16.752 11.7124L13.296 10.8602Z" fill="#00C7BD"/>
<path d="M14.832 11.4448C16.3166 11.4448 17.52 10.2237 17.52 8.71751C17.52 7.21128 16.3166 5.99023 14.832 5.99023C13.3475 5.99023 12.144 7.21128 12.144 8.71751C12.144 10.2237 13.3475 11.4448 14.832 11.4448Z" fill="#008A83"/>
<path d="M26.736 8.08414C26.736 8.08414 27.504 10.8845 22.248 12.5647L21.432 11.6637C21.432 11.6637 24.528 10.0565 24.768 7.76758L26.736 8.08414Z" fill="#005450"/>
<path d="M19.3199 10.349C19.3199 10.349 22.1759 5.55193 24.8399 5.89283L26.7119 8.08439C26.7119 8.08439 23.2799 8.474 21.2159 11.5422L19.3199 10.349Z" fill="#00C7BD"/>
<path opacity="0.2" d="M28.872 13.904L13.392 12.6621V14.4641L28.392 16.2904L28.872 13.904Z" fill="#231F20"/>
<path d="M0 16.2664L13.176 13.9531V9.25342L0 11.5667V16.2664Z" fill="#FF433B"/>
<path d="M30 15.8281L13.176 13.9531V9.25342L30 11.1284V15.8281Z" fill="#FF7670"/>
<path d="M25.128 10.5924L20.616 10.0811L20.256 14.659L20.736 14.7807L24.72 15.2434L25.128 10.5924Z" fill="#8CDEDB"/>
<path d="M4.67998 15.4381L7.96798 14.8537L7.58398 10.2271L4.15198 10.8358L4.67998 15.4381Z" fill="#00C7BD"/>
</svg>
