<svg width="16" height="16" viewBox="0 0 16 16" fill="none" xmlns="http://www.w3.org/2000/svg">
<path d="M14 0H2C0.9 0 0 0.9 0 2V16H12H12.9V12H16V2C16 0.9 15.1 0 14 0ZM0.9 15.1V2.2C0.9 1.5 1.5 0.9 2.2 0.9H11.1H12.3C12.1 1.2 12 1.6 12 2V12V15.1C11.9 15.1 11.8 15.1 11.7 15.1C11.4 15.1 11.1 15.1 11.1 15.1H0.9ZM13 11V2C13 1.4 13.4 1 14 1C14.6 1 15 1.4 15 2V11H13Z" fill="#231F20"/>
<path d="M6.4 7.4C5.6 7 5.4 6.9 5.4 6.6C5.4 6.3 5.6 6 6.1 6C6.6 6 7 6.2 7.1 6.3L7.3 6.4L7.7 5.4L7.6 5.2C7.3 5.1 7 4.9 6.6 4.9V4H5.6V5C4.7 5.2 4.1 5.8 4.1 6.6C4.1 7.6 4.9 8.1 5.8 8.4C6.6 8.8 6.7 9 6.7 9.3C6.7 9.7 6.4 10 5.8 10C5.4 10 5 9.9 4.6 9.6L4.4 9.5L4 10.5L4.1 10.6C4.5 10.9 5 11 5.4 11.1V12H6.4V11C7.3 10.8 7.8 10.1 7.8 9.2C7.9 8.1 7.1 7.7 6.4 7.4Z" fill="#231F20"/>
</svg>
