<svg width="38" height="38" viewBox="0 0 38 38" fill="none" xmlns="http://www.w3.org/2000/svg">
<path d="M30.8751 26.125H28.5C25.8768 26.125 23.7499 23.9981 23.7499 21.3748V19.8489C24.8007 18.5999 25.5544 17.1226 26.0229 15.5615C26.0715 15.2983 26.3248 15.1683 26.4937 14.9874C27.4031 14.0782 27.5819 12.5439 26.8998 11.4515C26.8069 11.2857 26.6397 11.1419 26.6491 10.9365C26.6491 9.54371 26.6561 8.14874 26.6473 6.75706C26.61 5.07678 26.1298 3.32891 24.9518 2.0847C24.0007 1.07943 22.6948 0.480857 21.3475 0.224684C19.645 -0.100095 17.8638 -0.0836484 16.1776 0.345291C14.7163 0.714083 13.3434 1.56993 12.4945 2.83857C11.7428 3.9415 11.4135 5.28071 11.3579 6.60058C11.3371 8.01764 11.3531 9.43822 11.3488 10.8587C11.3812 11.1431 11.14 11.3355 11.031 11.5709C10.3886 12.7364 10.6714 14.3242 11.7037 15.1718C11.9656 15.3525 12.0146 15.682 12.1094 15.9661C12.5596 17.3692 13.3063 18.667 14.2502 19.7977V21.3748C14.2502 23.9981 12.1234 26.125 9.50025 26.125H7.12507C7.12507 26.125 2.82049 27.3121 0 33.2499V35.625C0 36.9375 1.06228 37.9996 2.3751 37.9996H35.6253C36.9378 37.9996 38 36.9375 38 35.625V33.2499C35.1797 27.3126 30.8751 26.125 30.8751 26.125Z" fill="#999999"/>
</svg>
